<svg width="146" height="24" viewBox="0 0 146 24" fill="none" xmlns="http://www.w3.org/2000/svg">
<path d="M5.72 2.4V3.15H3.42V9H2.62V3.15H0.32V2.4H5.72ZM7.73164 3.9C8.20497 3.9 8.62164 4.00333 8.98164 4.21C9.34831 4.41667 9.63497 4.71667 9.84164 5.11C10.0483 5.49667 10.1516 5.96 10.1516 6.5C10.1516 7.04 10.0483 7.50667 9.84164 7.9C9.63497 8.28667 9.34831 8.58333 8.98164 8.79C8.62164 8.99667 8.20497 9.1 7.73164 9.1C7.26497 9.1 6.84831 8.99667 6.48164 8.79C6.11497 8.58333 5.82831 8.28667 5.62164 7.9C5.41497 7.50667 5.31164 7.04 5.31164 6.5C5.31164 5.96 5.41497 5.49667 5.62164 5.11C5.82831 4.71667 6.11497 4.41667 6.48164 4.21C6.84831 4.00333 7.26497 3.9 7.73164 3.9ZM7.73164 4.59C7.39164 4.59 7.10164 4.66667 6.86164 4.82C6.62164 4.97333 6.43497 5.19333 6.30164 5.48C6.17497 5.76 6.11164 6.1 6.11164 6.5C6.11164 6.89333 6.17497 7.23333 6.30164 7.52C6.43497 7.80667 6.62164 8.02667 6.86164 8.18C7.10164 8.33333 7.39164 8.41 7.73164 8.41C8.07164 8.41 8.36164 8.33333 8.60164 8.18C8.84164 8.02667 9.02497 7.80667 9.15164 7.52C9.28497 7.23333 9.35164 6.89333 9.35164 6.5C9.35164 6.1 9.28497 5.76 9.15164 5.48C9.02497 5.19333 8.84164 4.97333 8.60164 4.82C8.36164 4.66667 8.07164 4.59 7.73164 4.59ZM13.4077 9.1C12.9944 9.1 12.6144 8.99667 12.2677 8.79C11.9211 8.58333 11.6444 8.28667 11.4377 7.9C11.2311 7.50667 11.1277 7.04 11.1277 6.5C11.1277 5.94667 11.2377 5.47667 11.4577 5.09C11.6777 4.70333 11.9677 4.41 12.3277 4.21C12.6877 4.00333 13.0744 3.9 13.4877 3.9C13.9011 3.9 14.2577 4.00667 14.5577 4.22C14.8644 4.43333 15.0677 4.71667 15.1677 5.07L15.0677 5.14V1.7H15.8677V9H15.1677L15.0977 7.79L15.2077 7.73C15.1611 8.02333 15.0477 8.27333 14.8677 8.48C14.6944 8.68 14.4777 8.83333 14.2177 8.94C13.9644 9.04667 13.6944 9.1 13.4077 9.1ZM13.4877 8.4C13.8077 8.4 14.0844 8.32 14.3177 8.16C14.5577 8 14.7411 7.77333 14.8677 7.48C15.0011 7.18 15.0677 6.83 15.0677 6.43C15.0677 6.05 15.0011 5.72333 14.8677 5.45C14.7411 5.17667 14.5611 4.96667 14.3277 4.82C14.1011 4.67333 13.8344 4.6 13.5277 4.6C13.0211 4.6 12.6277 4.77333 12.3477 5.12C12.0677 5.46667 11.9277 5.92667 11.9277 6.5C11.9277 7.07333 12.0644 7.53333 12.3377 7.88C12.6111 8.22667 12.9944 8.4 13.4877 8.4ZM19.5973 3.9C20.0706 3.9 20.4873 4.00333 20.8473 4.21C21.2139 4.41667 21.5006 4.71667 21.7073 5.11C21.9139 5.49667 22.0173 5.96 22.0173 6.5C22.0173 7.04 21.9139 7.50667 21.7073 7.9C21.5006 8.28667 21.2139 8.58333 20.8473 8.79C20.4873 8.99667 20.0706 9.1 19.5973 9.1C19.1306 9.1 18.7139 8.99667 18.3473 8.79C17.9806 8.58333 17.6939 8.28667 17.4873 7.9C17.2806 7.50667 17.1773 7.04 17.1773 6.5C17.1773 5.96 17.2806 5.49667 17.4873 5.11C17.6939 4.71667 17.9806 4.41667 18.3473 4.21C18.7139 4.00333 19.1306 3.9 19.5973 3.9ZM19.5973 4.59C19.2573 4.59 18.9673 4.66667 18.7273 4.82C18.4873 4.97333 18.3006 5.19333 18.1673 5.48C18.0406 5.76 17.9773 6.1 17.9773 6.5C17.9773 6.89333 18.0406 7.23333 18.1673 7.52C18.3006 7.80667 18.4873 8.02667 18.7273 8.18C18.9673 8.33333 19.2573 8.41 19.5973 8.41C19.9373 8.41 20.2273 8.33333 20.4673 8.18C20.7073 8.02667 20.8906 7.80667 21.0173 7.52C21.1506 7.23333 21.2173 6.89333 21.2173 6.5C21.2173 6.1 21.1506 5.76 21.0173 5.48C20.8906 5.19333 20.7073 4.97333 20.4673 4.82C20.2273 4.66667 19.9373 4.59 19.5973 4.59ZM25.1234 9.1C24.6367 9.1 24.1867 8.99667 23.7734 8.79C23.3667 8.58333 23.0534 8.29 22.8334 7.91L23.5134 7.42C23.66 7.72667 23.8734 7.96667 24.1534 8.14C24.44 8.31333 24.7834 8.4 25.1834 8.4C25.5367 8.4 25.8134 8.33333 26.0134 8.2C26.2134 8.06 26.3134 7.88 26.3134 7.66C26.3134 7.52 26.2667 7.39333 26.1734 7.28C26.0867 7.16 25.9167 7.07333 25.6634 7.02L24.4634 6.77C23.9767 6.67 23.6267 6.50333 23.4134 6.27C23.2067 6.03667 23.1034 5.74667 23.1034 5.4C23.1034 5.12667 23.18 4.87667 23.3334 4.65C23.4934 4.42333 23.7167 4.24333 24.0034 4.11C24.2967 3.97 24.64 3.9 25.0334 3.9C25.5267 3.9 25.9434 3.99667 26.2834 4.19C26.6234 4.38333 26.8767 4.65667 27.0434 5.01L26.3734 5.45C26.26 5.15667 26.0767 4.94333 25.8234 4.81C25.57 4.67 25.3067 4.6 25.0334 4.6C24.7934 4.6 24.5867 4.63333 24.4134 4.7C24.2467 4.76667 24.1167 4.86 24.0234 4.98C23.9367 5.09333 23.8934 5.22333 23.8934 5.37C23.8934 5.51667 23.9434 5.65333 24.0434 5.78C24.1434 5.9 24.33 5.98667 24.6034 6.04L25.8534 6.3C26.32 6.39333 26.6467 6.54667 26.8334 6.76C27.02 6.97333 27.1134 7.23333 27.1134 7.54C27.1134 7.85333 27.03 8.13 26.8634 8.37C26.6967 8.60333 26.4634 8.78333 26.1634 8.91C25.8634 9.03667 25.5167 9.1 25.1234 9.1ZM32.365 1.7V7.73C32.365 7.98333 32.4117 8.16 32.505 8.26C32.5983 8.35333 32.7483 8.4 32.955 8.4C33.0883 8.4 33.1983 8.39 33.285 8.37C33.3717 8.35 33.4883 8.31333 33.635 8.26L33.505 8.96C33.3983 9.00667 33.2817 9.04 33.155 9.06C33.0283 9.08667 32.8983 9.1 32.765 9.1C32.3583 9.1 32.055 8.99 31.855 8.77C31.6617 8.55 31.565 8.21333 31.565 7.76V1.7H32.365ZM36.5316 3.9C37.005 3.9 37.4216 4.00333 37.7816 4.21C38.1483 4.41667 38.435 4.71667 38.6416 5.11C38.8483 5.49667 38.9516 5.96 38.9516 6.5C38.9516 7.04 38.8483 7.50667 38.6416 7.9C38.435 8.28667 38.1483 8.58333 37.7816 8.79C37.4216 8.99667 37.005 9.1 36.5316 9.1C36.065 9.1 35.6483 8.99667 35.2816 8.79C34.915 8.58333 34.6283 8.28667 34.4216 7.9C34.215 7.50667 34.1116 7.04 34.1116 6.5C34.1116 5.96 34.215 5.49667 34.4216 5.11C34.6283 4.71667 34.915 4.41667 35.2816 4.21C35.6483 4.00333 36.065 3.9 36.5316 3.9ZM36.5316 4.59C36.1916 4.59 35.9016 4.66667 35.6616 4.82C35.4216 4.97333 35.235 5.19333 35.1016 5.48C34.975 5.76 34.9116 6.1 34.9116 6.5C34.9116 6.89333 34.975 7.23333 35.1016 7.52C35.235 7.80667 35.4216 8.02667 35.6616 8.18C35.9016 8.33333 36.1916 8.41 36.5316 8.41C36.8716 8.41 37.1616 8.33333 37.4016 8.18C37.6416 8.02667 37.825 7.80667 37.9516 7.52C38.085 7.23333 38.1516 6.89333 38.1516 6.5C38.1516 6.1 38.085 5.76 37.9516 5.48C37.825 5.19333 37.6416 4.97333 37.4016 4.82C37.1616 4.66667 36.8716 4.59 36.5316 4.59ZM42.0577 9.1C41.5711 9.1 41.1211 8.99667 40.7077 8.79C40.3011 8.58333 39.9877 8.29 39.7677 7.91L40.4477 7.42C40.5944 7.72667 40.8077 7.96667 41.0877 8.14C41.3744 8.31333 41.7177 8.4 42.1177 8.4C42.4711 8.4 42.7477 8.33333 42.9477 8.2C43.1477 8.06 43.2477 7.88 43.2477 7.66C43.2477 7.52 43.2011 7.39333 43.1077 7.28C43.0211 7.16 42.8511 7.07333 42.5977 7.02L41.3977 6.77C40.9111 6.67 40.5611 6.50333 40.3477 6.27C40.1411 6.03667 40.0377 5.74667 40.0377 5.4C40.0377 5.12667 40.1144 4.87667 40.2677 4.65C40.4277 4.42333 40.6511 4.24333 40.9377 4.11C41.2311 3.97 41.5744 3.9 41.9677 3.9C42.4611 3.9 42.8777 3.99667 43.2177 4.19C43.5577 4.38333 43.8111 4.65667 43.9777 5.01L43.3077 5.45C43.1944 5.15667 43.0111 4.94333 42.7577 4.81C42.5044 4.67 42.2411 4.6 41.9677 4.6C41.7277 4.6 41.5211 4.63333 41.3477 4.7C41.1811 4.76667 41.0511 4.86 40.9577 4.98C40.8711 5.09333 40.8277 5.22333 40.8277 5.37C40.8277 5.51667 40.8777 5.65333 40.9777 5.78C41.0777 5.9 41.2644 5.98667 41.5377 6.04L42.7877 6.3C43.2544 6.39333 43.5811 6.54667 43.7677 6.76C43.9544 6.97333 44.0477 7.23333 44.0477 7.54C44.0477 7.85333 43.9644 8.13 43.7977 8.37C43.6311 8.60333 43.3977 8.78333 43.0977 8.91C42.7977 9.03667 42.4511 9.1 42.0577 9.1ZM50.4894 9.1C50.076 9.1 49.696 8.99667 49.3494 8.79C49.0027 8.58333 48.726 8.28667 48.5194 7.9C48.3127 7.50667 48.2094 7.04 48.2094 6.5C48.2094 5.94667 48.3194 5.47667 48.5394 5.09C48.7594 4.70333 49.0494 4.41 49.4094 4.21C49.7694 4.00333 50.156 3.9 50.5694 3.9C50.9827 3.9 51.3394 4.00667 51.6394 4.22C51.946 4.43333 52.1494 4.71667 52.2494 5.07L52.1494 5.14V1.7H52.9494V9H52.2494L52.1794 7.79L52.2894 7.73C52.2427 8.02333 52.1294 8.27333 51.9494 8.48C51.776 8.68 51.5594 8.83333 51.2994 8.94C51.046 9.04667 50.776 9.1 50.4894 9.1ZM50.5694 8.4C50.8894 8.4 51.166 8.32 51.3994 8.16C51.6394 8 51.8227 7.77333 51.9494 7.48C52.0827 7.18 52.1494 6.83 52.1494 6.43C52.1494 6.05 52.0827 5.72333 51.9494 5.45C51.8227 5.17667 51.6427 4.96667 51.4094 4.82C51.1827 4.67333 50.916 4.6 50.6094 4.6C50.1027 4.6 49.7094 4.77333 49.4294 5.12C49.1494 5.46667 49.0094 5.92667 49.0094 6.5C49.0094 7.07333 49.146 7.53333 49.4194 7.88C49.6927 8.22667 50.076 8.4 50.5694 8.4ZM56.6989 9.1C56.2256 9.1 55.8022 8.99667 55.4289 8.79C55.0622 8.58333 54.7756 8.28667 54.5689 7.9C54.3622 7.50667 54.2589 7.04 54.2589 6.5C54.2589 5.96 54.3622 5.49667 54.5689 5.11C54.7756 4.71667 55.0589 4.41667 55.4189 4.21C55.7789 4.00333 56.1889 3.9 56.6489 3.9C57.1156 3.9 57.5122 4 57.8389 4.2C58.1722 4.4 58.4256 4.67333 58.5989 5.02C58.7722 5.36 58.8589 5.74333 58.8589 6.17C58.8589 6.28333 58.8556 6.38667 58.8489 6.48C58.8422 6.57333 58.8322 6.65667 58.8189 6.73H54.7789V6.02H58.4689L58.0589 6.1C58.0589 5.62 57.9256 5.25 57.6589 4.99C57.3989 4.73 57.0556 4.6 56.6289 4.6C56.3022 4.6 56.0189 4.67667 55.7789 4.83C55.5456 4.97667 55.3622 5.19333 55.2289 5.48C55.1022 5.76 55.0389 6.1 55.0389 6.5C55.0389 6.89333 55.1056 7.23333 55.2389 7.52C55.3722 7.80667 55.5589 8.02667 55.7989 8.18C56.0456 8.32667 56.3389 8.4 56.6789 8.4C57.0456 8.4 57.3422 8.33 57.5689 8.19C57.8022 8.05 57.9889 7.86 58.1289 7.62L58.7589 7.99C58.6322 8.21667 58.4689 8.41333 58.2689 8.58C58.0756 8.74667 57.8456 8.87667 57.5789 8.97C57.3189 9.05667 57.0256 9.1 56.6989 9.1ZM60.1804 9V4H60.8304L60.9404 4.82C61.0804 4.51333 61.2837 4.28333 61.5504 4.13C61.8237 3.97667 62.1537 3.9 62.5404 3.9C62.6271 3.9 62.7204 3.90667 62.8204 3.92C62.9271 3.93333 63.0171 3.96 63.0904 4L62.9504 4.73C62.8771 4.70333 62.7971 4.68333 62.7104 4.67C62.6237 4.65667 62.5004 4.65 62.3404 4.65C62.1337 4.65 61.9237 4.71 61.7104 4.83C61.5037 4.95 61.3304 5.13333 61.1904 5.38C61.0504 5.62 60.9804 5.92667 60.9804 6.3V9H60.1804ZM65.9962 9.1C65.5228 9.1 65.0995 8.99667 64.7262 8.79C64.3595 8.58333 64.0728 8.28667 63.8662 7.9C63.6595 7.50667 63.5562 7.04 63.5562 6.5C63.5562 5.96 63.6595 5.49667 63.8662 5.11C64.0728 4.71667 64.3562 4.41667 64.7162 4.21C65.0762 4.00333 65.4862 3.9 65.9462 3.9C66.4128 3.9 66.8095 4 67.1362 4.2C67.4695 4.4 67.7228 4.67333 67.8962 5.02C68.0695 5.36 68.1562 5.74333 68.1562 6.17C68.1562 6.28333 68.1528 6.38667 68.1462 6.48C68.1395 6.57333 68.1295 6.65667 68.1162 6.73H64.0762V6.02H67.7662L67.3562 6.1C67.3562 5.62 67.2228 5.25 66.9562 4.99C66.6962 4.73 66.3528 4.6 65.9262 4.6C65.5995 4.6 65.3162 4.67667 65.0762 4.83C64.8428 4.97667 64.6595 5.19333 64.5262 5.48C64.3995 5.76 64.3362 6.1 64.3362 6.5C64.3362 6.89333 64.4028 7.23333 64.5362 7.52C64.6695 7.80667 64.8562 8.02667 65.0962 8.18C65.3428 8.32667 65.6362 8.4 65.9762 8.4C66.3428 8.4 66.6395 8.33 66.8662 8.19C67.0995 8.05 67.2862 7.86 67.4262 7.62L68.0562 7.99C67.9295 8.21667 67.7662 8.41333 67.5662 8.58C67.3728 8.74667 67.1428 8.87667 66.8762 8.97C66.6162 9.05667 66.3228 9.1 65.9962 9.1ZM71.5477 3.9C71.8943 3.9 72.1977 3.95333 72.4577 4.06C72.7243 4.16667 72.9543 4.32 73.1477 4.52C73.341 4.72 73.4977 4.95667 73.6177 5.23L72.8577 5.59C72.751 5.27 72.5877 5.02667 72.3677 4.86C72.1543 4.68667 71.8743 4.6 71.5277 4.6C71.1943 4.6 70.9077 4.67667 70.6677 4.83C70.4277 4.97667 70.2443 5.19333 70.1177 5.48C69.991 5.76 69.9277 6.1 69.9277 6.5C69.9277 6.89333 69.991 7.23333 70.1177 7.52C70.2443 7.80667 70.4277 8.02667 70.6677 8.18C70.9077 8.32667 71.1943 8.4 71.5277 8.4C71.7877 8.4 72.011 8.36 72.1977 8.28C72.391 8.2 72.5477 8.08333 72.6677 7.93C72.7943 7.77667 72.881 7.59 72.9277 7.37L73.6677 7.63C73.5543 7.93667 73.3977 8.2 73.1977 8.42C73.0043 8.64 72.7677 8.81 72.4877 8.93C72.2143 9.04333 71.901 9.1 71.5477 9.1C71.081 9.1 70.6643 8.99667 70.2977 8.79C69.931 8.58333 69.6443 8.28667 69.4377 7.9C69.231 7.50667 69.1277 7.04 69.1277 6.5C69.1277 5.96 69.231 5.49667 69.4377 5.11C69.6443 4.71667 69.931 4.41667 70.2977 4.21C70.6643 4.00333 71.081 3.9 71.5477 3.9ZM74.8734 9V1.7H75.6734V4.75C75.8467 4.45 76.0767 4.23333 76.3634 4.1C76.65 3.96667 76.9634 3.9 77.3034 3.9C77.6634 3.9 77.99 3.97 78.2834 4.11C78.5767 4.24333 78.81 4.45 78.9834 4.73C79.1634 5.01 79.2534 5.36667 79.2534 5.8V9H78.4534V6.08C78.4534 5.52667 78.3334 5.14333 78.0934 4.93C77.86 4.71 77.57 4.6 77.2234 4.6C76.9834 4.6 76.7434 4.65667 76.5034 4.77C76.2634 4.88333 76.0634 5.07 75.9034 5.33C75.75 5.58333 75.6734 5.92333 75.6734 6.35V9H74.8734ZM82.9348 3.9C83.4081 3.9 83.8248 4.00333 84.1848 4.21C84.5514 4.41667 84.8381 4.71667 85.0448 5.11C85.2514 5.49667 85.3548 5.96 85.3548 6.5C85.3548 7.04 85.2514 7.50667 85.0448 7.9C84.8381 8.28667 84.5514 8.58333 84.1848 8.79C83.8248 8.99667 83.4081 9.1 82.9348 9.1C82.4681 9.1 82.0514 8.99667 81.6848 8.79C81.3181 8.58333 81.0314 8.28667 80.8248 7.9C80.6181 7.50667 80.5148 7.04 80.5148 6.5C80.5148 5.96 80.6181 5.49667 80.8248 5.11C81.0314 4.71667 81.3181 4.41667 81.6848 4.21C82.0514 4.00333 82.4681 3.9 82.9348 3.9ZM82.9348 4.59C82.5948 4.59 82.3048 4.66667 82.0648 4.82C81.8248 4.97333 81.6381 5.19333 81.5048 5.48C81.3781 5.76 81.3148 6.1 81.3148 6.5C81.3148 6.89333 81.3781 7.23333 81.5048 7.52C81.6381 7.80667 81.8248 8.02667 82.0648 8.18C82.3048 8.33333 82.5948 8.41 82.9348 8.41C83.2748 8.41 83.5648 8.33333 83.8048 8.18C84.0448 8.02667 84.2281 7.80667 84.3548 7.52C84.4881 7.23333 84.5548 6.89333 84.5548 6.5C84.5548 6.1 84.4881 5.76 84.3548 5.48C84.2281 5.19333 84.0448 4.97333 83.8048 4.82C83.5648 4.66667 83.2748 4.59 82.9348 4.59ZM88.4609 9.1C87.9742 9.1 87.5242 8.99667 87.1109 8.79C86.7042 8.58333 86.3909 8.29 86.1709 7.91L86.8509 7.42C86.9975 7.72667 87.2109 7.96667 87.4909 8.14C87.7775 8.31333 88.1209 8.4 88.5209 8.4C88.8742 8.4 89.1509 8.33333 89.3509 8.2C89.5509 8.06 89.6509 7.88 89.6509 7.66C89.6509 7.52 89.6042 7.39333 89.5109 7.28C89.4242 7.16 89.2542 7.07333 89.0009 7.02L87.8009 6.77C87.3142 6.67 86.9642 6.50333 86.7509 6.27C86.5442 6.03667 86.4409 5.74667 86.4409 5.4C86.4409 5.12667 86.5175 4.87667 86.6709 4.65C86.8309 4.42333 87.0542 4.24333 87.3409 4.11C87.6342 3.97 87.9775 3.9 88.3709 3.9C88.8642 3.9 89.2809 3.99667 89.6209 4.19C89.9609 4.38333 90.2142 4.65667 90.3809 5.01L89.7109 5.45C89.5975 5.15667 89.4142 4.94333 89.1609 4.81C88.9075 4.67 88.6442 4.6 88.3709 4.6C88.1309 4.6 87.9242 4.63333 87.7509 4.7C87.5842 4.76667 87.4542 4.86 87.3609 4.98C87.2742 5.09333 87.2309 5.22333 87.2309 5.37C87.2309 5.51667 87.2809 5.65333 87.3809 5.78C87.4809 5.9 87.6675 5.98667 87.9409 6.04L89.1909 6.3C89.6575 6.39333 89.9842 6.54667 90.1709 6.76C90.3575 6.97333 90.4509 7.23333 90.4509 7.54C90.4509 7.85333 90.3675 8.13 90.2009 8.37C90.0342 8.60333 89.8009 8.78333 89.5009 8.91C89.2009 9.03667 88.8542 9.1 88.4609 9.1ZM94.9425 9V4H95.5925L95.7025 4.82C95.8425 4.51333 96.0458 4.28333 96.3125 4.13C96.5858 3.97667 96.9158 3.9 97.3025 3.9C97.3892 3.9 97.4825 3.90667 97.5825 3.92C97.6892 3.93333 97.7792 3.96 97.8525 4L97.7125 4.73C97.6392 4.70333 97.5592 4.68333 97.4725 4.67C97.3858 4.65667 97.2625 4.65 97.1025 4.65C96.8958 4.65 96.6858 4.71 96.4725 4.83C96.2658 4.95 96.0925 5.13333 95.9525 5.38C95.8125 5.62 95.7425 5.92667 95.7425 6.3V9H94.9425ZM100.758 9.1C100.285 9.1 99.8616 8.99667 99.4883 8.79C99.1216 8.58333 98.8349 8.28667 98.6283 7.9C98.4216 7.50667 98.3183 7.04 98.3183 6.5C98.3183 5.96 98.4216 5.49667 98.6283 5.11C98.8349 4.71667 99.1183 4.41667 99.4783 4.21C99.8383 4.00333 100.248 3.9 100.708 3.9C101.175 3.9 101.572 4 101.898 4.2C102.232 4.4 102.485 4.67333 102.658 5.02C102.832 5.36 102.918 5.74333 102.918 6.17C102.918 6.28333 102.915 6.38667 102.908 6.48C102.902 6.57333 102.892 6.65667 102.878 6.73H98.8383V6.02H102.528L102.118 6.1C102.118 5.62 101.985 5.25 101.718 4.99C101.458 4.73 101.115 4.6 100.688 4.6C100.362 4.6 100.078 4.67667 99.8383 4.83C99.6049 4.97667 99.4216 5.19333 99.2883 5.48C99.1616 5.76 99.0983 6.1 99.0983 6.5C99.0983 6.89333 99.1649 7.23333 99.2983 7.52C99.4316 7.80667 99.6183 8.02667 99.8583 8.18C100.105 8.32667 100.398 8.4 100.738 8.4C101.105 8.4 101.402 8.33 101.628 8.19C101.862 8.05 102.048 7.86 102.188 7.62L102.818 7.99C102.692 8.21667 102.528 8.41333 102.328 8.58C102.135 8.74667 101.905 8.87667 101.638 8.97C101.378 9.05667 101.085 9.1 100.758 9.1ZM106.04 9.1C105.553 9.1 105.103 8.99667 104.69 8.79C104.283 8.58333 103.97 8.29 103.75 7.91L104.43 7.42C104.576 7.72667 104.79 7.96667 105.07 8.14C105.356 8.31333 105.7 8.4 106.1 8.4C106.453 8.4 106.73 8.33333 106.93 8.2C107.13 8.06 107.23 7.88 107.23 7.66C107.23 7.52 107.183 7.39333 107.09 7.28C107.003 7.16 106.833 7.07333 106.58 7.02L105.38 6.77C104.893 6.67 104.543 6.50333 104.33 6.27C104.123 6.03667 104.02 5.74667 104.02 5.4C104.02 5.12667 104.096 4.87667 104.25 4.65C104.41 4.42333 104.633 4.24333 104.92 4.11C105.213 3.97 105.556 3.9 105.95 3.9C106.443 3.9 106.86 3.99667 107.2 4.19C107.54 4.38333 107.793 4.65667 107.96 5.01L107.29 5.45C107.176 5.15667 106.993 4.94333 106.74 4.81C106.486 4.67 106.223 4.6 105.95 4.6C105.71 4.6 105.503 4.63333 105.33 4.7C105.163 4.76667 105.033 4.86 104.94 4.98C104.853 5.09333 104.81 5.22333 104.81 5.37C104.81 5.51667 104.86 5.65333 104.96 5.78C105.06 5.9 105.246 5.98667 105.52 6.04L106.77 6.3C107.236 6.39333 107.563 6.54667 107.75 6.76C107.936 6.97333 108.03 7.23333 108.03 7.54C108.03 7.85333 107.946 8.13 107.78 8.37C107.613 8.60333 107.38 8.78333 107.08 8.91C106.78 9.03667 106.433 9.1 106.04 9.1ZM111.403 9.1C110.93 9.1 110.507 8.99667 110.133 8.79C109.767 8.58333 109.48 8.28667 109.273 7.9C109.067 7.50667 108.963 7.04 108.963 6.5C108.963 5.96 109.067 5.49667 109.273 5.11C109.48 4.71667 109.763 4.41667 110.123 4.21C110.483 4.00333 110.893 3.9 111.353 3.9C111.82 3.9 112.217 4 112.543 4.2C112.877 4.4 113.13 4.67333 113.303 5.02C113.477 5.36 113.563 5.74333 113.563 6.17C113.563 6.28333 113.56 6.38667 113.553 6.48C113.547 6.57333 113.537 6.65667 113.523 6.73H109.483V6.02H113.173L112.763 6.1C112.763 5.62 112.63 5.25 112.363 4.99C112.103 4.73 111.76 4.6 111.333 4.6C111.007 4.6 110.723 4.67667 110.483 4.83C110.25 4.97667 110.067 5.19333 109.933 5.48C109.807 5.76 109.743 6.1 109.743 6.5C109.743 6.89333 109.81 7.23333 109.943 7.52C110.077 7.80667 110.263 8.02667 110.503 8.18C110.75 8.32667 111.043 8.4 111.383 8.4C111.75 8.4 112.047 8.33 112.273 8.19C112.507 8.05 112.693 7.86 112.833 7.62L113.463 7.99C113.337 8.21667 113.173 8.41333 112.973 8.58C112.78 8.74667 112.55 8.87667 112.283 8.97C112.023 9.05667 111.73 9.1 111.403 9.1ZM114.885 9V4H115.535L115.645 4.82C115.785 4.51333 115.988 4.28333 116.255 4.13C116.528 3.97667 116.858 3.9 117.245 3.9C117.331 3.9 117.425 3.90667 117.525 3.92C117.631 3.93333 117.721 3.96 117.795 4L117.655 4.73C117.581 4.70333 117.501 4.68333 117.415 4.67C117.328 4.65667 117.205 4.65 117.045 4.65C116.838 4.65 116.628 4.71 116.415 4.83C116.208 4.95 116.035 5.13333 115.895 5.38C115.755 5.62 115.685 5.92667 115.685 6.3V9H114.885ZM122.077 4H122.917L120.837 9H120.037L117.957 4H118.867L120.447 8.19L122.077 4ZM126.555 5.77C126.555 5.39667 126.455 5.11 126.255 4.91C126.055 4.70333 125.772 4.6 125.405 4.6C125.058 4.6 124.765 4.67667 124.525 4.83C124.285 4.97667 124.108 5.21667 123.995 5.55L123.345 5.15C123.478 4.77667 123.725 4.47667 124.085 4.25C124.445 4.01667 124.892 3.9 125.425 3.9C125.785 3.9 126.112 3.96333 126.405 4.09C126.698 4.21 126.928 4.39667 127.095 4.65C127.268 4.89667 127.355 5.21667 127.355 5.61V8.03C127.355 8.27 127.482 8.39 127.735 8.39C127.862 8.39 127.985 8.37333 128.105 8.34L128.065 8.97C127.932 9.03667 127.758 9.07 127.545 9.07C127.352 9.07 127.178 9.03333 127.025 8.96C126.872 8.88667 126.752 8.77667 126.665 8.63C126.578 8.47667 126.535 8.28667 126.535 8.06V7.96L126.735 7.99C126.655 8.25 126.518 8.46333 126.325 8.63C126.132 8.79 125.915 8.91 125.675 8.99C125.435 9.06333 125.198 9.1 124.965 9.1C124.672 9.1 124.398 9.05 124.145 8.95C123.892 8.85 123.688 8.7 123.535 8.5C123.388 8.29333 123.315 8.04 123.315 7.74C123.315 7.36667 123.438 7.06 123.685 6.82C123.938 6.57333 124.288 6.40667 124.735 6.32L126.715 5.93V6.59L125.105 6.92C124.778 6.98667 124.535 7.08 124.375 7.2C124.215 7.32 124.135 7.48667 124.135 7.7C124.135 7.90667 124.215 8.07667 124.375 8.21C124.542 8.33667 124.775 8.4 125.075 8.4C125.268 8.4 125.452 8.37667 125.625 8.33C125.805 8.27667 125.965 8.2 126.105 8.1C126.245 7.99333 126.355 7.86333 126.435 7.71C126.515 7.55 126.555 7.36333 126.555 7.15V5.77ZM131.049 9.1C130.636 9.1 130.256 8.99667 129.909 8.79C129.562 8.58333 129.286 8.28667 129.079 7.9C128.872 7.50667 128.769 7.04 128.769 6.5C128.769 5.94667 128.879 5.47667 129.099 5.09C129.319 4.70333 129.609 4.41 129.969 4.21C130.329 4.00333 130.716 3.9 131.129 3.9C131.542 3.9 131.899 4.00667 132.199 4.22C132.506 4.43333 132.709 4.71667 132.809 5.07L132.709 5.14V1.7H133.509V9H132.809L132.739 7.79L132.849 7.73C132.802 8.02333 132.689 8.27333 132.509 8.48C132.336 8.68 132.119 8.83333 131.859 8.94C131.606 9.04667 131.336 9.1 131.049 9.1ZM131.129 8.4C131.449 8.4 131.726 8.32 131.959 8.16C132.199 8 132.382 7.77333 132.509 7.48C132.642 7.18 132.709 6.83 132.709 6.43C132.709 6.05 132.642 5.72333 132.509 5.45C132.382 5.17667 132.202 4.96667 131.969 4.82C131.742 4.67333 131.476 4.6 131.169 4.6C130.662 4.6 130.269 4.77333 129.989 5.12C129.709 5.46667 129.569 5.92667 129.569 6.5C129.569 7.07333 129.706 7.53333 129.979 7.88C130.252 8.22667 130.636 8.4 131.129 8.4ZM137.239 3.9C137.712 3.9 138.129 4.00333 138.489 4.21C138.855 4.41667 139.142 4.71667 139.349 5.11C139.555 5.49667 139.659 5.96 139.659 6.5C139.659 7.04 139.555 7.50667 139.349 7.9C139.142 8.28667 138.855 8.58333 138.489 8.79C138.129 8.99667 137.712 9.1 137.239 9.1C136.772 9.1 136.355 8.99667 135.989 8.79C135.622 8.58333 135.335 8.28667 135.129 7.9C134.922 7.50667 134.819 7.04 134.819 6.5C134.819 5.96 134.922 5.49667 135.129 5.11C135.335 4.71667 135.622 4.41667 135.989 4.21C136.355 4.00333 136.772 3.9 137.239 3.9ZM137.239 4.59C136.899 4.59 136.609 4.66667 136.369 4.82C136.129 4.97333 135.942 5.19333 135.809 5.48C135.682 5.76 135.619 6.1 135.619 6.5C135.619 6.89333 135.682 7.23333 135.809 7.52C135.942 7.80667 136.129 8.02667 136.369 8.18C136.609 8.33333 136.899 8.41 137.239 8.41C137.579 8.41 137.869 8.33333 138.109 8.18C138.349 8.02667 138.532 7.80667 138.659 7.52C138.792 7.23333 138.859 6.89333 138.859 6.5C138.859 6.1 138.792 5.76 138.659 5.48C138.532 5.19333 138.349 4.97333 138.109 4.82C137.869 4.66667 137.579 4.59 137.239 4.59ZM142.765 9.1C142.278 9.1 141.828 8.99667 141.415 8.79C141.008 8.58333 140.695 8.29 140.475 7.91L141.155 7.42C141.301 7.72667 141.515 7.96667 141.795 8.14C142.081 8.31333 142.425 8.4 142.825 8.4C143.178 8.4 143.455 8.33333 143.655 8.2C143.855 8.06 143.955 7.88 143.955 7.66C143.955 7.52 143.908 7.39333 143.815 7.28C143.728 7.16 143.558 7.07333 143.305 7.02L142.105 6.77C141.618 6.67 141.268 6.50333 141.055 6.27C140.848 6.03667 140.745 5.74667 140.745 5.4C140.745 5.12667 140.821 4.87667 140.975 4.65C141.135 4.42333 141.358 4.24333 141.645 4.11C141.938 3.97 142.281 3.9 142.675 3.9C143.168 3.9 143.585 3.99667 143.925 4.19C144.265 4.38333 144.518 4.65667 144.685 5.01L144.015 5.45C143.901 5.15667 143.718 4.94333 143.465 4.81C143.211 4.67 142.948 4.6 142.675 4.6C142.435 4.6 142.228 4.63333 142.055 4.7C141.888 4.76667 141.758 4.86 141.665 4.98C141.578 5.09333 141.535 5.22333 141.535 5.37C141.535 5.51667 141.585 5.65333 141.685 5.78C141.785 5.9 141.971 5.98667 142.245 6.04L143.495 6.3C143.961 6.39333 144.288 6.54667 144.475 6.76C144.661 6.97333 144.755 7.23333 144.755 7.54C144.755 7.85333 144.671 8.13 144.505 8.37C144.338 8.60333 144.105 8.78333 143.805 8.91C143.505 9.03667 143.158 9.1 142.765 9.1Z" fill="white"/>
<path d="M6.26 14.4V21H5.27L2.51 16.58L1.81 15.34H1.8L1.84 16.34V21H1.08V14.4H2.07L4.82 18.8L5.53 20.07H5.54L5.5 19.06V14.4H6.26ZM8.47375 15.04C8.29375 15.04 8.14708 14.9867 8.03375 14.88C7.92708 14.7667 7.87375 14.62 7.87375 14.44C7.87375 14.26 7.92708 14.1167 8.03375 14.01C8.14708 13.8967 8.29375 13.84 8.47375 13.84C8.65375 13.84 8.79708 13.8967 8.90375 14.01C9.01708 14.1167 9.07375 14.26 9.07375 14.44C9.07375 14.62 9.01708 14.7667 8.90375 14.88C8.79708 14.9867 8.65375 15.04 8.47375 15.04ZM8.87375 16V21H8.07375V16H8.87375ZM12.48 21.1C12.0667 21.1 11.6867 20.9967 11.34 20.79C10.9933 20.5833 10.7167 20.2867 10.51 19.9C10.3033 19.5067 10.2 19.04 10.2 18.5C10.2 17.9467 10.31 17.4767 10.53 17.09C10.75 16.7033 11.04 16.41 11.4 16.21C11.76 16.0033 12.1467 15.9 12.56 15.9C12.9733 15.9 13.33 16.0067 13.63 16.22C13.9367 16.4333 14.14 16.7167 14.24 17.07L14.14 17.14V13.7H14.94V21H14.24L14.17 19.79L14.28 19.73C14.2333 20.0233 14.12 20.2733 13.94 20.48C13.7667 20.68 13.55 20.8333 13.29 20.94C13.0367 21.0467 12.7667 21.1 12.48 21.1ZM12.56 20.4C12.88 20.4 13.1567 20.32 13.39 20.16C13.63 20 13.8133 19.7733 13.94 19.48C14.0733 19.18 14.14 18.83 14.14 18.43C14.14 18.05 14.0733 17.7233 13.94 17.45C13.8133 17.1767 13.6333 16.9667 13.4 16.82C13.1733 16.6733 12.9067 16.6 12.6 16.6C12.0933 16.6 11.7 16.7733 11.42 17.12C11.14 17.4667 11 17.9267 11 18.5C11 19.0733 11.1367 19.5333 11.41 19.88C11.6833 20.2267 12.0667 20.4 12.56 20.4ZM18.6695 15.9C19.1429 15.9 19.5595 16.0033 19.9195 16.21C20.2862 16.4167 20.5729 16.7167 20.7795 17.11C20.9862 17.4967 21.0895 17.96 21.0895 18.5C21.0895 19.04 20.9862 19.5067 20.7795 19.9C20.5729 20.2867 20.2862 20.5833 19.9195 20.79C19.5595 20.9967 19.1429 21.1 18.6695 21.1C18.2029 21.1 17.7862 20.9967 17.4195 20.79C17.0529 20.5833 16.7662 20.2867 16.5595 19.9C16.3529 19.5067 16.2495 19.04 16.2495 18.5C16.2495 17.96 16.3529 17.4967 16.5595 17.11C16.7662 16.7167 17.0529 16.4167 17.4195 16.21C17.7862 16.0033 18.2029 15.9 18.6695 15.9ZM18.6695 16.59C18.3295 16.59 18.0395 16.6667 17.7995 16.82C17.5595 16.9733 17.3729 17.1933 17.2395 17.48C17.1129 17.76 17.0495 18.1 17.0495 18.5C17.0495 18.8933 17.1129 19.2333 17.2395 19.52C17.3729 19.8067 17.5595 20.0267 17.7995 20.18C18.0395 20.3333 18.3295 20.41 18.6695 20.41C19.0095 20.41 19.2995 20.3333 19.5395 20.18C19.7795 20.0267 19.9629 19.8067 20.0895 19.52C20.2229 19.2333 20.2895 18.8933 20.2895 18.5C20.2895 18.1 20.2229 17.76 20.0895 17.48C19.9629 17.1933 19.7795 16.9733 19.5395 16.82C19.2995 16.6667 19.0095 16.59 18.6695 16.59ZM30.532 14.4L28.032 21H27.122L24.612 14.4H25.472L27.152 18.96L27.572 20.27L27.992 18.97L29.672 14.4H30.532ZM31.9464 15.04C31.7664 15.04 31.6197 14.9867 31.5064 14.88C31.3997 14.7667 31.3464 14.62 31.3464 14.44C31.3464 14.26 31.3997 14.1167 31.5064 14.01C31.6197 13.8967 31.7664 13.84 31.9464 13.84C32.1264 13.84 32.2697 13.8967 32.3764 14.01C32.4897 14.1167 32.5464 14.26 32.5464 14.44C32.5464 14.62 32.4897 14.7667 32.3764 14.88C32.2697 14.9867 32.1264 15.04 31.9464 15.04ZM32.3464 16V21H31.5464V16H32.3464ZM34.0027 21V16H34.6527L34.7627 16.82C34.9027 16.5133 35.106 16.2833 35.3727 16.13C35.646 15.9767 35.976 15.9 36.3627 15.9C36.4493 15.9 36.5427 15.9067 36.6427 15.92C36.7493 15.9333 36.8393 15.96 36.9127 16L36.7727 16.73C36.6993 16.7033 36.6193 16.6833 36.5327 16.67C36.446 16.6567 36.3227 16.65 36.1627 16.65C35.956 16.65 35.746 16.71 35.5327 16.83C35.326 16.95 35.1527 17.1333 35.0127 17.38C34.8727 17.62 34.8027 17.9267 34.8027 18.3V21H34.0027ZM38.762 14.58V19.62C38.762 19.8667 38.832 20.05 38.972 20.17C39.112 20.29 39.292 20.35 39.512 20.35C39.7053 20.35 39.872 20.3167 40.012 20.25C40.152 20.1833 40.2786 20.0933 40.392 19.98L40.672 20.65C40.5186 20.79 40.3353 20.9 40.122 20.98C39.9153 21.06 39.6753 21.1 39.402 21.1C39.1486 21.1 38.912 21.0567 38.692 20.97C38.472 20.8767 38.2953 20.7333 38.162 20.54C38.0353 20.34 37.9686 20.08 37.962 19.76V14.8L38.762 14.58ZM40.582 16V16.69H36.962V16H40.582ZM43.3814 21.1C43.0614 21.1 42.7581 21.04 42.4714 20.92C42.1914 20.8 41.9614 20.6067 41.7814 20.34C41.6081 20.0667 41.5214 19.7133 41.5214 19.28V16H42.3214V19.07C42.3214 19.5767 42.4314 19.9267 42.6514 20.12C42.8714 20.3067 43.1814 20.4 43.5814 20.4C43.7681 20.4 43.9514 20.37 44.1314 20.31C44.3114 20.2433 44.4714 20.1433 44.6114 20.01C44.7581 19.87 44.8714 19.6933 44.9514 19.48C45.0381 19.2667 45.0814 19.0133 45.0814 18.72V16H45.8814V21H45.1814L45.1314 20.24C44.9581 20.54 44.7214 20.76 44.4214 20.9C44.1281 21.0333 43.7814 21.1 43.3814 21.1ZM50.4633 17.77C50.4633 17.3967 50.3633 17.11 50.1633 16.91C49.9633 16.7033 49.6799 16.6 49.3133 16.6C48.9666 16.6 48.6733 16.6767 48.4333 16.83C48.1933 16.9767 48.0166 17.2167 47.9033 17.55L47.2533 17.15C47.3866 16.7767 47.6333 16.4767 47.9933 16.25C48.3533 16.0167 48.7999 15.9 49.3333 15.9C49.6933 15.9 50.0199 15.9633 50.3133 16.09C50.6066 16.21 50.8366 16.3967 51.0033 16.65C51.1766 16.8967 51.2633 17.2167 51.2633 17.61V20.03C51.2633 20.27 51.3899 20.39 51.6433 20.39C51.7699 20.39 51.8933 20.3733 52.0133 20.34L51.9733 20.97C51.8399 21.0367 51.6666 21.07 51.4533 21.07C51.2599 21.07 51.0866 21.0333 50.9333 20.96C50.7799 20.8867 50.6599 20.7767 50.5733 20.63C50.4866 20.4767 50.4433 20.2867 50.4433 20.06V19.96L50.6433 19.99C50.5633 20.25 50.4266 20.4633 50.2333 20.63C50.0399 20.79 49.8233 20.91 49.5833 20.99C49.3433 21.0633 49.1066 21.1 48.8733 21.1C48.5799 21.1 48.3066 21.05 48.0533 20.95C47.7999 20.85 47.5966 20.7 47.4433 20.5C47.2966 20.2933 47.2233 20.04 47.2233 19.74C47.2233 19.3667 47.3466 19.06 47.5933 18.82C47.8466 18.5733 48.1966 18.4067 48.6433 18.32L50.6233 17.93V18.59L49.0133 18.92C48.6866 18.9867 48.4433 19.08 48.2833 19.2C48.1233 19.32 48.0433 19.4867 48.0433 19.7C48.0433 19.9067 48.1233 20.0767 48.2833 20.21C48.4499 20.3367 48.6833 20.4 48.9833 20.4C49.1766 20.4 49.3599 20.3767 49.5333 20.33C49.7133 20.2767 49.8733 20.2 50.0133 20.1C50.1533 19.9933 50.2633 19.8633 50.3433 19.71C50.4233 19.55 50.4633 19.3633 50.4633 19.15V17.77ZM53.7673 13.7V19.73C53.7673 19.9833 53.814 20.16 53.9073 20.26C54.0007 20.3533 54.1507 20.4 54.3573 20.4C54.4907 20.4 54.6007 20.39 54.6873 20.37C54.774 20.35 54.8907 20.3133 55.0373 20.26L54.9073 20.96C54.8007 21.0067 54.684 21.04 54.5573 21.06C54.4307 21.0867 54.3007 21.1 54.1673 21.1C53.7607 21.1 53.4573 20.99 53.2573 20.77C53.064 20.55 52.9673 20.2133 52.9673 19.76V13.7H53.7673ZM61.5306 21.1C60.904 21.1 60.3606 20.9633 59.9006 20.69C59.4473 20.41 59.094 20.0167 58.8406 19.51C58.594 19.0033 58.4706 18.4 58.4706 17.7C58.4706 17 58.6006 16.3967 58.8606 15.89C59.1273 15.3833 59.4973 14.9933 59.9706 14.72C60.444 14.44 60.9873 14.3 61.6006 14.3C62.254 14.3 62.784 14.4233 63.1906 14.67C63.604 14.9167 63.9373 15.2967 64.1906 15.81L63.4606 16.21C63.314 15.83 63.0806 15.5433 62.7606 15.35C62.4473 15.15 62.0606 15.05 61.6006 15.05C61.154 15.05 60.7573 15.1567 60.4106 15.37C60.0706 15.5767 59.8006 15.88 59.6006 16.28C59.4073 16.6733 59.3106 17.1467 59.3106 17.7C59.3106 18.2533 59.394 18.73 59.5606 19.13C59.734 19.5233 59.9873 19.8267 60.3206 20.04C60.6606 20.2467 61.074 20.35 61.5606 20.35C61.834 20.35 62.0873 20.3167 62.3206 20.25C62.5606 20.1767 62.7673 20.07 62.9406 19.93C63.1206 19.79 63.2606 19.6133 63.3606 19.4C63.4606 19.1867 63.5106 18.9367 63.5106 18.65V18.42H61.4106V17.67H64.2406V21H63.6106L63.5706 19.77L63.7406 19.8C63.5673 20.2133 63.294 20.5333 62.9206 20.76C62.5473 20.9867 62.084 21.1 61.5306 21.1ZM68.677 17.77C68.677 17.3967 68.577 17.11 68.377 16.91C68.177 16.7033 67.8936 16.6 67.527 16.6C67.1803 16.6 66.887 16.6767 66.647 16.83C66.407 16.9767 66.2303 17.2167 66.117 17.55L65.467 17.15C65.6003 16.7767 65.847 16.4767 66.207 16.25C66.567 16.0167 67.0136 15.9 67.547 15.9C67.907 15.9 68.2336 15.9633 68.527 16.09C68.8203 16.21 69.0503 16.3967 69.217 16.65C69.3903 16.8967 69.477 17.2167 69.477 17.61V20.03C69.477 20.27 69.6036 20.39 69.857 20.39C69.9836 20.39 70.107 20.3733 70.227 20.34L70.187 20.97C70.0536 21.0367 69.8803 21.07 69.667 21.07C69.4736 21.07 69.3003 21.0333 69.147 20.96C68.9936 20.8867 68.8736 20.7767 68.787 20.63C68.7003 20.4767 68.657 20.2867 68.657 20.06V19.96L68.857 19.99C68.777 20.25 68.6403 20.4633 68.447 20.63C68.2536 20.79 68.037 20.91 67.797 20.99C67.557 21.0633 67.3203 21.1 67.087 21.1C66.7936 21.1 66.5203 21.05 66.267 20.95C66.0136 20.85 65.8103 20.7 65.657 20.5C65.5103 20.2933 65.437 20.04 65.437 19.74C65.437 19.3667 65.5603 19.06 65.807 18.82C66.0603 18.5733 66.4103 18.4067 66.857 18.32L68.837 17.93V18.59L67.227 18.92C66.9003 18.9867 66.657 19.08 66.497 19.2C66.337 19.32 66.257 19.4867 66.257 19.7C66.257 19.9067 66.337 20.0767 66.497 20.21C66.6636 20.3367 66.897 20.4 67.197 20.4C67.3903 20.4 67.5736 20.3767 67.747 20.33C67.927 20.2767 68.087 20.2 68.227 20.1C68.367 19.9933 68.477 19.8633 68.557 19.71C68.637 19.55 68.677 19.3633 68.677 19.15V17.77ZM71.221 21V16H71.921L71.971 16.78C72.151 16.4733 72.3843 16.25 72.671 16.11C72.9643 15.97 73.2643 15.9 73.571 15.9C73.9243 15.9 74.2577 15.98 74.571 16.14C74.8843 16.3 75.1243 16.5467 75.291 16.88C75.3977 16.6533 75.5477 16.47 75.741 16.33C75.9343 16.1833 76.1443 16.0767 76.371 16.01C76.6043 15.9367 76.8243 15.9 77.031 15.9C77.351 15.9 77.6543 15.9667 77.941 16.1C78.2343 16.2333 78.4743 16.44 78.661 16.72C78.8477 17 78.941 17.36 78.941 17.8V21H78.141V17.88C78.141 17.4267 78.0277 17.1 77.801 16.9C77.5743 16.7 77.2943 16.6 76.961 16.6C76.701 16.6 76.4577 16.6633 76.231 16.79C76.0043 16.9167 75.821 17.1033 75.681 17.35C75.5477 17.5967 75.481 17.9 75.481 18.26V21H74.681V17.88C74.681 17.4267 74.5677 17.1 74.341 16.9C74.1143 16.7 73.8343 16.6 73.501 16.6C73.281 16.6 73.0543 16.66 72.821 16.78C72.5943 16.8933 72.4043 17.0767 72.251 17.33C72.0977 17.5833 72.021 17.9167 72.021 18.33V21H71.221ZM82.6423 21.1C82.1689 21.1 81.7456 20.9967 81.3723 20.79C81.0056 20.5833 80.7189 20.2867 80.5123 19.9C80.3056 19.5067 80.2023 19.04 80.2023 18.5C80.2023 17.96 80.3056 17.4967 80.5123 17.11C80.7189 16.7167 81.0023 16.4167 81.3623 16.21C81.7223 16.0033 82.1323 15.9 82.5923 15.9C83.0589 15.9 83.4556 16 83.7823 16.2C84.1156 16.4 84.3689 16.6733 84.5423 17.02C84.7156 17.36 84.8023 17.7433 84.8023 18.17C84.8023 18.2833 84.7989 18.3867 84.7923 18.48C84.7856 18.5733 84.7756 18.6567 84.7623 18.73H80.7223V18.02H84.4123L84.0023 18.1C84.0023 17.62 83.8689 17.25 83.6023 16.99C83.3423 16.73 82.9989 16.6 82.5723 16.6C82.2456 16.6 81.9623 16.6767 81.7223 16.83C81.4889 16.9767 81.3056 17.1933 81.1723 17.48C81.0456 17.76 80.9823 18.1 80.9823 18.5C80.9823 18.8933 81.0489 19.2333 81.1823 19.52C81.3156 19.8067 81.5023 20.0267 81.7423 20.18C81.9889 20.3267 82.2823 20.4 82.6223 20.4C82.9889 20.4 83.2856 20.33 83.5123 20.19C83.7456 20.05 83.9323 19.86 84.0723 19.62L84.7023 19.99C84.5756 20.2167 84.4123 20.4133 84.2123 20.58C84.0189 20.7467 83.7889 20.8767 83.5223 20.97C83.2623 21.0567 82.9689 21.1 82.6423 21.1ZM87.9237 21.1C87.4371 21.1 86.9871 20.9967 86.5737 20.79C86.1671 20.5833 85.8537 20.29 85.6337 19.91L86.3137 19.42C86.4604 19.7267 86.6737 19.9667 86.9537 20.14C87.2404 20.3133 87.5837 20.4 87.9837 20.4C88.3371 20.4 88.6137 20.3333 88.8137 20.2C89.0137 20.06 89.1137 19.88 89.1137 19.66C89.1137 19.52 89.0671 19.3933 88.9737 19.28C88.8871 19.16 88.7171 19.0733 88.4637 19.02L87.2637 18.77C86.7771 18.67 86.4271 18.5033 86.2137 18.27C86.0071 18.0367 85.9037 17.7467 85.9037 17.4C85.9037 17.1267 85.9804 16.8767 86.1337 16.65C86.2937 16.4233 86.5171 16.2433 86.8037 16.11C87.0971 15.97 87.4404 15.9 87.8337 15.9C88.3271 15.9 88.7437 15.9967 89.0837 16.19C89.4237 16.3833 89.6771 16.6567 89.8437 17.01L89.1737 17.45C89.0604 17.1567 88.8771 16.9433 88.6237 16.81C88.3704 16.67 88.1071 16.6 87.8337 16.6C87.5937 16.6 87.3871 16.6333 87.2137 16.7C87.0471 16.7667 86.9171 16.86 86.8237 16.98C86.7371 17.0933 86.6937 17.2233 86.6937 17.37C86.6937 17.5167 86.7437 17.6533 86.8437 17.78C86.9437 17.9 87.1304 17.9867 87.4037 18.04L88.6537 18.3C89.1204 18.3933 89.4471 18.5467 89.6337 18.76C89.8204 18.9733 89.9137 19.2333 89.9137 19.54C89.9137 19.8533 89.8304 20.13 89.6637 20.37C89.4971 20.6033 89.2637 20.7833 88.9637 20.91C88.6637 21.0367 88.3171 21.1 87.9237 21.1ZM97.6754 17.97V18.8H94.3754V17.97H97.6754ZM102.321 21V20.35C102.981 19.8633 103.531 19.4367 103.971 19.07C104.418 18.7033 104.775 18.37 105.041 18.07C105.308 17.77 105.498 17.4867 105.611 17.22C105.725 16.9467 105.781 16.6633 105.781 16.37C105.781 15.9767 105.655 15.66 105.401 15.42C105.155 15.1733 104.815 15.05 104.381 15.05C103.928 15.05 103.565 15.2 103.291 15.5C103.018 15.7933 102.858 16.1867 102.811 16.68L102.111 16.26C102.171 15.8733 102.295 15.5333 102.481 15.24C102.675 14.9467 102.931 14.7167 103.251 14.55C103.578 14.3833 103.965 14.3 104.411 14.3C104.751 14.3 105.055 14.35 105.321 14.45C105.595 14.55 105.828 14.6933 106.021 14.88C106.215 15.06 106.361 15.2767 106.461 15.53C106.568 15.7833 106.621 16.0633 106.621 16.37C106.621 16.7833 106.521 17.19 106.321 17.59C106.121 17.9833 105.791 18.3967 105.331 18.83C104.871 19.2633 104.248 19.7433 103.461 20.27V20.28C103.535 20.2733 103.635 20.27 103.761 20.27C103.895 20.2633 104.025 20.26 104.151 20.26C104.285 20.2533 104.385 20.25 104.451 20.25H106.761V21H102.321ZM110.321 21.1C109.575 21.1 108.978 20.81 108.531 20.23C108.085 19.65 107.861 18.8067 107.861 17.7C107.861 16.5933 108.085 15.75 108.531 15.17C108.978 14.59 109.575 14.3 110.321 14.3C111.075 14.3 111.671 14.59 112.111 15.17C112.558 15.75 112.781 16.5933 112.781 17.7C112.781 18.8067 112.558 19.65 112.111 20.23C111.671 20.81 111.075 21.1 110.321 21.1ZM110.321 20.38C110.675 20.38 110.971 20.28 111.211 20.08C111.458 19.8733 111.641 19.57 111.761 19.17C111.888 18.77 111.951 18.28 111.951 17.7C111.951 17.12 111.888 16.63 111.761 16.23C111.641 15.83 111.458 15.53 111.211 15.33C110.971 15.1233 110.675 15.02 110.321 15.02C109.968 15.02 109.668 15.1233 109.421 15.33C109.181 15.53 108.998 15.83 108.871 16.23C108.751 16.63 108.691 17.12 108.691 17.7C108.691 18.28 108.751 18.77 108.871 19.17C108.998 19.57 109.181 19.8733 109.421 20.08C109.668 20.28 109.968 20.38 110.321 20.38ZM113.972 21V20.35C114.632 19.8633 115.182 19.4367 115.622 19.07C116.069 18.7033 116.425 18.37 116.692 18.07C116.959 17.77 117.149 17.4867 117.262 17.22C117.375 16.9467 117.432 16.6633 117.432 16.37C117.432 15.9767 117.305 15.66 117.052 15.42C116.805 15.1733 116.465 15.05 116.032 15.05C115.579 15.05 115.215 15.2 114.942 15.5C114.669 15.7933 114.509 16.1867 114.462 16.68L113.762 16.26C113.822 15.8733 113.945 15.5333 114.132 15.24C114.325 14.9467 114.582 14.7167 114.902 14.55C115.229 14.3833 115.615 14.3 116.062 14.3C116.402 14.3 116.705 14.35 116.972 14.45C117.245 14.55 117.479 14.6933 117.672 14.88C117.865 15.06 118.012 15.2767 118.112 15.53C118.219 15.7833 118.272 16.0633 118.272 16.37C118.272 16.7833 118.172 17.19 117.972 17.59C117.772 17.9833 117.442 18.3967 116.982 18.83C116.522 19.2633 115.899 19.7433 115.112 20.27V20.28C115.185 20.2733 115.285 20.27 115.412 20.27C115.545 20.2633 115.675 20.26 115.802 20.26C115.935 20.2533 116.035 20.25 116.102 20.25H118.412V21H113.972ZM119.602 21V20.35C120.262 19.8633 120.812 19.4367 121.252 19.07C121.699 18.7033 122.055 18.37 122.322 18.07C122.589 17.77 122.779 17.4867 122.892 17.22C123.005 16.9467 123.062 16.6633 123.062 16.37C123.062 15.9767 122.935 15.66 122.682 15.42C122.435 15.1733 122.095 15.05 121.662 15.05C121.209 15.05 120.845 15.2 120.572 15.5C120.299 15.7933 120.139 16.1867 120.092 16.68L119.392 16.26C119.452 15.8733 119.575 15.5333 119.762 15.24C119.955 14.9467 120.212 14.7167 120.532 14.55C120.859 14.3833 121.245 14.3 121.692 14.3C122.032 14.3 122.335 14.35 122.602 14.45C122.875 14.55 123.109 14.6933 123.302 14.88C123.495 15.06 123.642 15.2767 123.742 15.53C123.849 15.7833 123.902 16.0633 123.902 16.37C123.902 16.7833 123.802 17.19 123.602 17.59C123.402 17.9833 123.072 18.3967 122.612 18.83C122.152 19.2633 121.529 19.7433 120.742 20.27V20.28C120.815 20.2733 120.915 20.27 121.042 20.27C121.175 20.2633 121.305 20.26 121.432 20.26C121.565 20.2533 121.665 20.25 121.732 20.25H124.042V21H119.602Z" fill="white"/>
</svg>
