<svg width="335" height="53" viewBox="0 0 335 53" fill="none" xmlns="http://www.w3.org/2000/svg">
<rect width="282" height="53" fill="#212C4A"/>
<path d="M27.844 29.598C27.616 30.426 27.25 31.11 26.746 31.65C26.242 32.178 25.642 32.568 24.946 32.82C24.25 33.06 23.482 33.18 22.642 33.18C21.442 33.18 20.404 32.94 19.528 32.46C18.652 31.968 17.98 31.266 17.512 30.354C17.044 29.442 16.81 28.344 16.81 27.06C16.81 25.776 17.044 24.678 17.512 23.766C17.98 22.854 18.652 22.158 19.528 21.678C20.404 21.186 21.436 20.94 22.624 20.94C23.452 20.94 24.214 21.06 24.91 21.3C25.606 21.528 26.194 21.882 26.674 22.362C27.154 22.842 27.496 23.46 27.7 24.216L24.982 25.314C24.814 24.57 24.538 24.06 24.154 23.784C23.782 23.508 23.308 23.37 22.732 23.37C22.168 23.37 21.676 23.508 21.256 23.784C20.848 24.06 20.53 24.474 20.302 25.026C20.086 25.566 19.978 26.244 19.978 27.06C19.978 27.864 20.08 28.542 20.284 29.094C20.488 29.646 20.794 30.06 21.202 30.336C21.622 30.612 22.138 30.75 22.75 30.75C23.326 30.75 23.812 30.594 24.208 30.282C24.616 29.958 24.892 29.466 25.036 28.806L27.844 29.598ZM34.534 20.94C35.734 20.94 36.766 21.186 37.63 21.678C38.506 22.158 39.178 22.854 39.646 23.766C40.114 24.678 40.348 25.776 40.348 27.06C40.348 28.344 40.114 29.442 39.646 30.354C39.178 31.266 38.506 31.968 37.63 32.46C36.766 32.94 35.734 33.18 34.534 33.18C33.334 33.18 32.296 32.94 31.42 32.46C30.544 31.968 29.872 31.266 29.404 30.354C28.936 29.442 28.702 28.344 28.702 27.06C28.702 25.776 28.936 24.678 29.404 23.766C29.872 22.854 30.544 22.158 31.42 21.678C32.296 21.186 33.334 20.94 34.534 20.94ZM34.534 23.37C33.958 23.37 33.472 23.508 33.076 23.784C32.68 24.06 32.38 24.474 32.176 25.026C31.972 25.566 31.87 26.244 31.87 27.06C31.87 27.864 31.972 28.542 32.176 29.094C32.38 29.646 32.68 30.06 33.076 30.336C33.472 30.612 33.958 30.75 34.534 30.75C35.11 30.75 35.59 30.612 35.974 30.336C36.37 30.06 36.67 29.646 36.874 29.094C37.078 28.542 37.18 27.864 37.18 27.06C37.18 26.244 37.078 25.566 36.874 25.026C36.67 24.474 36.37 24.06 35.974 23.784C35.59 23.508 35.11 23.37 34.534 23.37ZM55.8694 21.12V33H53.1334V27.546L53.2234 23.892H53.1874L50.2534 33H47.7514L44.8174 23.892H44.7814L44.8714 27.546V33H42.1174V21.12H46.5274L48.3994 27.168L49.0654 29.688H49.1014L49.7854 27.186L51.6394 21.12H55.8694ZM63.5942 21.12C64.5662 21.12 65.3942 21.276 66.0782 21.588C66.7622 21.9 67.2842 22.35 67.6442 22.938C68.0042 23.526 68.1842 24.24 68.1842 25.08C68.1842 25.92 68.0042 26.634 67.6442 27.222C67.2842 27.81 66.7622 28.26 66.0782 28.572C65.3942 28.884 64.5662 29.04 63.5942 29.04H61.2362V33H58.1402V21.12H63.5942ZM63.1082 26.718C63.7562 26.718 64.2422 26.586 64.5662 26.322C64.9022 26.046 65.0702 25.632 65.0702 25.08C65.0702 24.528 64.9022 24.12 64.5662 23.856C64.2422 23.58 63.7562 23.442 63.1082 23.442H61.2362V26.718H63.1082ZM75.4737 21.12C76.8897 21.12 77.9877 21.456 78.7677 22.128C79.5597 22.788 79.9557 23.67 79.9557 24.774C79.9557 25.986 79.5657 26.91 78.7857 27.546C78.0057 28.182 76.9077 28.5 75.4917 28.5L75.2037 28.662H72.8457V33H69.8037V21.12H75.4737ZM75.0417 26.466C75.6417 26.466 76.0917 26.346 76.3917 26.106C76.6917 25.866 76.8417 25.482 76.8417 24.954C76.8417 24.438 76.6917 24.06 76.3917 23.82C76.0917 23.58 75.6417 23.46 75.0417 23.46H72.8457V26.466H75.0417ZM76.8597 27.114L80.6577 33H77.2377L74.1957 27.798L76.8597 27.114ZM92.6538 33H89.4678L88.6398 30.318H84.5718L83.7258 33H80.6118L84.7878 21.12H88.4958L92.6538 33ZM85.1478 28.212H88.0638L86.6058 23.406L85.1478 28.212Z" fill="white"/>
<path d="M208.08 33V31.02C209.1 30.384 209.97 29.79 210.69 29.238C211.41 28.686 211.992 28.164 212.436 27.672C212.892 27.18 213.228 26.712 213.444 26.268C213.66 25.824 213.768 25.392 213.768 24.972C213.768 24.516 213.63 24.138 213.354 23.838C213.09 23.526 212.694 23.37 212.166 23.37C211.602 23.37 211.164 23.58 210.852 24C210.54 24.408 210.372 25.008 210.348 25.8L207.702 24.99C207.726 24.102 207.936 23.358 208.332 22.758C208.74 22.158 209.292 21.708 209.988 21.408C210.684 21.096 211.476 20.94 212.364 20.94C213.144 20.94 213.816 21.054 214.38 21.282C214.956 21.498 215.424 21.792 215.784 22.164C216.144 22.524 216.408 22.932 216.576 23.388C216.756 23.832 216.846 24.288 216.846 24.756C216.846 25.524 216.648 26.244 216.252 26.916C215.856 27.576 215.28 28.218 214.524 28.842C213.78 29.454 212.874 30.072 211.806 30.696V30.714C212.01 30.702 212.25 30.69 212.526 30.678C212.802 30.666 213.09 30.66 213.39 30.66C213.69 30.648 213.96 30.642 214.2 30.642H216.99V33H208.08ZM222.781 33.18C221.509 33.18 220.447 32.934 219.595 32.442C218.755 31.938 218.173 31.206 217.849 30.246L220.693 29.022C220.753 29.454 220.861 29.802 221.017 30.066C221.185 30.318 221.407 30.504 221.683 30.624C221.959 30.732 222.283 30.786 222.655 30.786C222.991 30.786 223.273 30.732 223.501 30.624C223.741 30.504 223.927 30.336 224.059 30.12C224.191 29.904 224.257 29.646 224.257 29.346C224.257 29.034 224.191 28.782 224.059 28.59C223.939 28.398 223.759 28.26 223.519 28.176C223.291 28.092 223.009 28.05 222.673 28.05C222.517 28.05 222.373 28.056 222.241 28.068C222.109 28.068 221.959 28.08 221.791 28.104V26.088C221.887 26.1 221.983 26.112 222.079 26.124C222.175 26.124 222.289 26.124 222.421 26.124C222.985 26.124 223.387 26.01 223.627 25.782C223.879 25.542 224.005 25.17 224.005 24.666C224.005 24.234 223.879 23.904 223.627 23.676C223.387 23.448 223.045 23.334 222.601 23.334C222.133 23.334 221.749 23.46 221.449 23.712C221.149 23.952 220.957 24.366 220.873 24.954L218.155 24.018C218.287 23.358 218.569 22.8 219.001 22.344C219.433 21.888 219.973 21.54 220.621 21.3C221.281 21.06 222.007 20.94 222.799 20.94C223.711 20.94 224.479 21.072 225.103 21.336C225.727 21.6 226.201 21.978 226.525 22.47C226.849 22.962 227.011 23.538 227.011 24.198C227.011 24.714 226.927 25.146 226.759 25.494C226.603 25.842 226.399 26.124 226.147 26.34C225.907 26.556 225.661 26.718 225.409 26.826C225.157 26.922 224.947 26.982 224.779 27.006V27.06C224.995 27.06 225.241 27.102 225.517 27.186C225.793 27.27 226.063 27.408 226.327 27.6C226.591 27.78 226.807 28.032 226.975 28.356C227.155 28.68 227.245 29.082 227.245 29.562C227.245 30.306 227.047 30.948 226.651 31.488C226.267 32.028 225.739 32.448 225.067 32.748C224.395 33.036 223.633 33.18 222.781 33.18ZM230.229 29.904C230.673 29.904 231.039 30.006 231.327 30.21C231.615 30.414 231.825 30.684 231.957 31.02C232.101 31.344 232.173 31.71 232.173 32.118C232.173 32.658 232.053 33.174 231.813 33.666C231.585 34.17 231.279 34.608 230.895 34.98C230.523 35.364 230.115 35.652 229.671 35.844L228.429 34.926C228.765 34.794 229.071 34.626 229.347 34.422C229.635 34.218 229.881 33.996 230.085 33.756C230.301 33.516 230.463 33.27 230.571 33.018L230.481 32.964C230.421 33.012 230.343 33.048 230.247 33.072C230.151 33.096 230.025 33.108 229.869 33.108C229.653 33.108 229.431 33.054 229.203 32.946C228.987 32.838 228.801 32.676 228.645 32.46C228.501 32.244 228.429 31.968 228.429 31.632C228.429 31.248 228.513 30.93 228.681 30.678C228.849 30.426 229.071 30.234 229.347 30.102C229.623 29.97 229.917 29.904 230.229 29.904ZM238.584 20.94C239.22 20.94 239.808 21.024 240.348 21.192C240.9 21.36 241.38 21.636 241.788 22.02C242.196 22.404 242.502 22.92 242.706 23.568L240.186 24.756C240.066 24.336 239.856 24.006 239.556 23.766C239.268 23.514 238.878 23.388 238.386 23.388C238.05 23.388 237.738 23.472 237.45 23.64C237.174 23.796 236.934 24.024 236.73 24.324C236.526 24.624 236.37 24.99 236.262 25.422C236.166 25.854 236.118 26.34 236.118 26.88C236.118 26.916 236.118 26.958 236.118 27.006C236.118 27.042 236.118 27.096 236.118 27.168L236.154 27.276C236.298 26.916 236.52 26.616 236.82 26.376C237.132 26.124 237.486 25.932 237.882 25.8C238.278 25.668 238.674 25.602 239.07 25.602C239.802 25.602 240.456 25.746 241.032 26.034C241.608 26.322 242.058 26.736 242.382 27.276C242.718 27.804 242.886 28.446 242.886 29.202C242.886 30.018 242.7 30.726 242.328 31.326C241.956 31.914 241.44 32.37 240.78 32.694C240.12 33.018 239.334 33.18 238.422 33.18C237.402 33.18 236.502 32.958 235.722 32.514C234.954 32.058 234.354 31.386 233.922 30.498C233.502 29.598 233.292 28.488 233.292 27.168C233.292 25.752 233.526 24.588 233.994 23.676C234.462 22.764 235.092 22.08 235.884 21.624C236.688 21.168 237.588 20.94 238.584 20.94ZM238.368 27.69C238.056 27.69 237.768 27.756 237.504 27.888C237.252 28.008 237.048 28.188 236.892 28.428C236.748 28.668 236.676 28.95 236.676 29.274C236.676 29.586 236.754 29.862 236.91 30.102C237.066 30.342 237.27 30.528 237.522 30.66C237.774 30.792 238.056 30.858 238.368 30.858C238.908 30.858 239.322 30.72 239.61 30.444C239.91 30.168 240.06 29.778 240.06 29.274C240.06 28.938 239.994 28.656 239.862 28.428C239.73 28.188 239.538 28.008 239.286 27.888C239.046 27.756 238.74 27.69 238.368 27.69ZM248.308 33.18C247.276 33.18 246.376 32.982 245.608 32.586C244.852 32.178 244.216 31.518 243.7 30.606L246.418 29.256C246.55 29.736 246.76 30.12 247.048 30.408C247.348 30.696 247.792 30.84 248.38 30.84C248.752 30.84 249.07 30.774 249.334 30.642C249.598 30.51 249.802 30.318 249.946 30.066C250.102 29.802 250.18 29.484 250.18 29.112C250.18 28.752 250.108 28.452 249.964 28.212C249.832 27.972 249.634 27.792 249.37 27.672C249.106 27.54 248.776 27.474 248.38 27.474C248.092 27.474 247.834 27.504 247.606 27.564C247.378 27.612 247.168 27.69 246.976 27.798C246.796 27.894 246.628 28.02 246.472 28.176L244.132 27.744L244.888 21.12H252.376V23.514H247.138L246.832 25.89L246.778 26.178H246.796C247.036 25.902 247.372 25.692 247.804 25.548C248.236 25.404 248.716 25.332 249.244 25.332C250.024 25.332 250.69 25.488 251.242 25.8C251.794 26.112 252.22 26.538 252.52 27.078C252.82 27.618 252.97 28.236 252.97 28.932C252.97 29.664 252.844 30.3 252.592 30.84C252.352 31.368 252.01 31.806 251.566 32.154C251.134 32.502 250.636 32.76 250.072 32.928C249.52 33.096 248.932 33.18 248.308 33.18ZM253.744 26.628V25.458H262.366L261.97 26.628H253.744ZM253.744 28.914V27.726H261.646L261.268 28.914H253.744ZM260.728 20.94C261.508 20.94 262.216 21.054 262.852 21.282C263.488 21.498 264.028 21.816 264.472 22.236C264.916 22.644 265.228 23.148 265.408 23.748L263.14 24.774C263.032 24.198 262.762 23.778 262.33 23.514C261.898 23.238 261.394 23.1 260.818 23.1C260.17 23.1 259.63 23.25 259.198 23.55C258.778 23.85 258.46 24.3 258.244 24.9C258.04 25.488 257.938 26.208 257.938 27.06C257.938 28.332 258.16 29.31 258.604 29.994C259.06 30.678 259.804 31.02 260.836 31.02C261.436 31.02 261.934 30.87 262.33 30.57C262.726 30.258 262.99 29.79 263.122 29.166L265.48 29.868C265.3 30.6 264.988 31.212 264.544 31.704C264.112 32.196 263.566 32.568 262.906 32.82C262.258 33.06 261.538 33.18 260.746 33.18C259.57 33.18 258.562 32.94 257.722 32.46C256.882 31.968 256.234 31.266 255.778 30.354C255.334 29.442 255.112 28.344 255.112 27.06C255.112 25.776 255.34 24.678 255.796 23.766C256.264 22.854 256.918 22.158 257.758 21.678C258.598 21.186 259.588 20.94 260.728 20.94Z" fill="white"/>
<rect width="53" height="53" transform="translate(282)" fill="#0179FD"/>
<path d="M307.625 23.875H309.375V21.25H312V19.5H309.375V16.875H307.625V19.5H305V21.25H307.625V23.875ZM304.125 31.75C303.661 31.75 303.216 31.9344 302.888 32.2626C302.559 32.5908 302.375 33.0359 302.375 33.5C302.375 33.9641 302.559 34.4093 302.888 34.7374C303.216 35.0656 303.661 35.25 304.125 35.25C304.589 35.25 305.034 35.0656 305.362 34.7374C305.691 34.4093 305.875 33.9641 305.875 33.5C305.875 33.0359 305.691 32.5908 305.362 32.2626C305.034 31.9344 304.589 31.75 304.125 31.75ZM312.875 31.75C312.411 31.75 311.966 31.9344 311.638 32.2626C311.309 32.5908 311.125 33.0359 311.125 33.5C311.125 33.9641 311.309 34.4093 311.638 34.7374C311.966 35.0656 312.411 35.25 312.875 35.25C313.339 35.25 313.784 35.0656 314.112 34.7374C314.441 34.4093 314.625 33.9641 314.625 33.5C314.625 33.0359 314.441 32.5908 314.112 32.2626C313.784 31.9344 313.339 31.75 312.875 31.75ZM304.274 28.9063L304.3 28.8013L305.088 27.375H311.606C312.263 27.375 312.84 27.0163 313.138 26.4738L316.515 20.34L314.993 19.5H314.984L314.021 21.25L311.606 25.625H305.464L305.35 25.3888L303.39 21.25L302.559 19.5L301.736 17.75H298.875V19.5H300.625L303.775 26.1413L302.594 28.285C302.454 28.53 302.375 28.8188 302.375 29.125C302.375 29.5891 302.559 30.0342 302.888 30.3624C303.216 30.6906 303.661 30.875 304.125 30.875H314.625V29.125H304.493C304.379 29.125 304.274 29.0288 304.274 28.9063Z" fill="#F4F4F4"/>
</svg>
