<svg width="158" height="26" viewBox="0 0 158 26" fill="none" xmlns="http://www.w3.org/2000/svg">
<path d="M14 12.3333C14 16.0333 11.44 19.4933 8 20.3333C4.56 19.4933 2 16.0333 2 12.3333V8.33332L8 5.66666L14 8.33332V12.3333ZM8 19C10.5 18.3333 12.6667 15.36 12.6667 12.48V9.19999L8 7.11999L3.33333 9.19999V12.48C3.33333 15.36 5.5 18.3333 8 19ZM8 10.9267C9.06667 10.9267 9.92667 11.7867 9.92667 12.8533C9.92667 13.92 9.06667 14.78 8 14.78C6.93333 14.78 6.07333 13.9133 6.07333 12.8533C6.07333 11.7933 6.94 10.9267 8 10.9267ZM8 8.99999L8.92 10.3333C8.64 10.2133 8.33333 10.1533 8 10.1533C7.66667 10.1533 7.36667 10.2133 7.08 10.3333L8 8.99999ZM4.66667 10.9267L6.26667 10.7933C6.04 11 5.82667 11.2267 5.66667 11.5067C5.5 11.7867 5.4 12.08 5.33333 12.3867L4.66667 10.9267ZM4.66667 14.78L5.35333 13.3333C5.40667 13.62 5.51333 13.92 5.66667 14.2C5.83333 14.4867 6.04 14.7267 6.26667 14.92L4.66667 14.78ZM11.3333 10.9267L10.6667 12.3867C10.6 12.08 10.4933 11.7867 10.3333 11.5067C10.1733 11.2267 9.96667 11 9.73333 10.7867L11.3333 10.9267ZM11.3333 14.78L9.73333 14.9133C9.96 14.72 10.1667 14.48 10.3333 14.2C10.4933 13.92 10.5933 13.62 10.6467 13.3333L11.3333 14.78ZM8 16.7L7.07333 15.38C7.36 15.48 7.66667 15.5467 8 15.5467C8.33333 15.5467 8.63333 15.48 8.91333 15.38L8 16.7Z" fill="#F4F4F4"/>
<path d="M25.2 2.3C25.78 2.3 26.28 2.42 26.7 2.66C27.12 2.89333 27.47 3.24 27.75 3.7L27.08 4.22C26.8333 3.79333 26.5533 3.49333 26.24 3.32C25.9333 3.14 25.56 3.05 25.12 3.05C24.7667 3.05 24.4733 3.1 24.24 3.2C24.0133 3.3 23.8467 3.43333 23.74 3.6C23.6333 3.76 23.58 3.94333 23.58 4.15C23.58 4.38333 23.6533 4.59 23.8 4.77C23.9467 4.94333 24.24 5.08 24.68 5.18L26.11 5.5C26.7433 5.64 27.1833 5.85333 27.43 6.14C27.6833 6.42 27.81 6.77 27.81 7.19C27.81 7.56333 27.7033 7.89667 27.49 8.19C27.2833 8.47667 26.99 8.7 26.61 8.86C26.23 9.02 25.7833 9.1 25.27 9.1C24.79 9.1 24.3667 9.03667 24 8.91C23.64 8.77667 23.33 8.6 23.07 8.38C22.81 8.16 22.5967 7.91333 22.43 7.64L23.13 7.07C23.2567 7.32333 23.42 7.54667 23.62 7.74C23.82 7.93333 24.06 8.08333 24.34 8.19C24.6267 8.29667 24.9533 8.35 25.32 8.35C25.66 8.35 25.9533 8.31 26.2 8.23C26.4533 8.14333 26.6467 8.02 26.78 7.86C26.9133 7.69333 26.98 7.49333 26.98 7.26C26.98 7.04667 26.91 6.85667 26.77 6.69C26.63 6.51667 26.3667 6.38667 25.98 6.3L24.43 5.95C24.0233 5.85667 23.6933 5.73 23.44 5.57C23.1933 5.40333 23.0133 5.21 22.9 4.99C22.7933 4.76333 22.74 4.52 22.74 4.26C22.74 3.90667 22.8367 3.58333 23.03 3.29C23.23 2.99 23.5133 2.75 23.88 2.57C24.2533 2.39 24.6933 2.3 25.2 2.3ZM29.2863 9V2.4H33.9163V3.15H30.0863V5.28H33.0663V6.03H30.0863V8.25H34.0663V9H29.2863ZM37.9767 9.1C37.3501 9.1 36.8067 8.96333 36.3467 8.69C35.8934 8.41 35.5401 8.01667 35.2867 7.51C35.0401 7.00333 34.9167 6.4 34.9167 5.7C34.9167 5 35.0467 4.39667 35.3067 3.89C35.5734 3.38333 35.9434 2.99333 36.4167 2.72C36.8901 2.44 37.4334 2.3 38.0467 2.3C38.7001 2.3 39.2301 2.42333 39.6367 2.67C40.0501 2.91667 40.3834 3.29667 40.6367 3.81L39.9067 4.21C39.7601 3.83 39.5267 3.54333 39.2067 3.35C38.8934 3.15 38.5067 3.05 38.0467 3.05C37.6001 3.05 37.2034 3.15667 36.8567 3.37C36.5167 3.57667 36.2467 3.88 36.0467 4.28C35.8534 4.67333 35.7567 5.14667 35.7567 5.7C35.7567 6.25333 35.8401 6.73 36.0067 7.13C36.1801 7.52333 36.4334 7.82667 36.7667 8.04C37.1067 8.24667 37.5201 8.35 38.0067 8.35C38.2801 8.35 38.5334 8.31667 38.7667 8.25C39.0067 8.17667 39.2134 8.07 39.3867 7.93C39.5667 7.79 39.7067 7.61333 39.8067 7.4C39.9067 7.18667 39.9567 6.93667 39.9567 6.65V6.42H37.8567V5.67H40.6867V9H40.0567L40.0167 7.77L40.1867 7.8C40.0134 8.21333 39.7401 8.53333 39.3667 8.76C38.9934 8.98667 38.5301 9.1 37.9767 9.1ZM47.403 2.4V6.54C47.403 7.38667 47.1797 8.02667 46.733 8.46C46.2864 8.88667 45.6464 9.1 44.813 9.1C43.9864 9.1 43.3464 8.88667 42.893 8.46C42.4464 8.02667 42.223 7.38667 42.223 6.54V2.4H43.023V6.34C43.023 7.02667 43.1664 7.53333 43.453 7.86C43.7464 8.18667 44.1997 8.35 44.813 8.35C45.4264 8.35 45.8764 8.18667 46.163 7.86C46.4564 7.53333 46.603 7.02667 46.603 6.34V2.4H47.403ZM51.7331 2.4C52.4065 2.4 52.9465 2.57333 53.3531 2.92C53.7598 3.26667 53.9631 3.73667 53.9631 4.33C53.9631 4.92333 53.7565 5.38667 53.3431 5.72C52.9365 6.04667 52.3965 6.21 51.7231 6.21L51.6531 6.26H50.0331V9H49.2331V2.4H51.7331ZM51.7231 5.51C52.1965 5.51 52.5465 5.41333 52.7731 5.22C53.0065 5.02 53.1231 4.72333 53.1231 4.33C53.1231 3.93667 53.0065 3.64333 52.7731 3.45C52.5465 3.25 52.1965 3.15 51.7231 3.15H50.0331V5.51H51.7231ZM52.1831 5.67L54.3631 9H53.4131L51.5131 6.11L52.1831 5.67ZM56.4835 2.4V9H55.6835V2.4H56.4835ZM60.5725 2.4C61.6058 2.4 62.4158 2.68667 63.0025 3.26C63.5958 3.82667 63.8925 4.64 63.8925 5.7C63.8925 6.76 63.5958 7.57667 63.0025 8.15C62.4158 8.71667 61.6058 9 60.5725 9H58.4425V2.4H60.5725ZM60.6525 8.25C61.4058 8.25 61.9925 8.02667 62.4125 7.58C62.8392 7.12667 63.0525 6.5 63.0525 5.7C63.0525 4.9 62.8392 4.27667 62.4125 3.83C61.9925 3.37667 61.4058 3.15 60.6525 3.15H59.2425V8.25H60.6525ZM70.4849 9H69.6349L68.9349 7.17H65.9449L65.2449 9H64.4049L66.9749 2.4H67.9249L70.4849 9ZM66.2349 6.42H68.6449L67.4349 3.17L66.2349 6.42ZM73.7565 2.4C74.7898 2.4 75.5998 2.68667 76.1865 3.26C76.7798 3.82667 77.0765 4.64 77.0765 5.7C77.0765 6.76 76.7798 7.57667 76.1865 8.15C75.5998 8.71667 74.7898 9 73.7565 9H71.6265V2.4H73.7565ZM73.8365 8.25C74.5898 8.25 75.1765 8.02667 75.5965 7.58C76.0232 7.12667 76.2365 6.5 76.2365 5.7C76.2365 4.9 76.0232 4.27667 75.5965 3.83C75.1765 3.37667 74.5898 3.15 73.8365 3.15H72.4265V8.25H73.8365ZM84.1717 2.4C84.6184 2.4 85.0051 2.48333 85.3317 2.65C85.6651 2.81 85.9251 3.04 86.1117 3.34C86.2984 3.64 86.3917 3.99667 86.3917 4.41C86.3917 4.82333 86.2984 5.18 86.1117 5.48C85.9251 5.78 85.6651 6.01333 85.3317 6.18C85.0051 6.34 84.6184 6.42 84.1717 6.42H82.6417V9H81.8417V2.4H84.1717ZM84.0517 5.67C84.5717 5.67 84.9517 5.56333 85.1917 5.35C85.4317 5.13 85.5517 4.81667 85.5517 4.41C85.5517 3.99667 85.4317 3.68333 85.1917 3.47C84.9517 3.25667 84.5717 3.15 84.0517 3.15H82.6417V5.67H84.0517ZM90.2452 2.4C90.9186 2.4 91.4586 2.57333 91.8652 2.92C92.2719 3.26667 92.4752 3.73667 92.4752 4.33C92.4752 4.92333 92.2686 5.38667 91.8552 5.72C91.4486 6.04667 90.9086 6.21 90.2352 6.21L90.1652 6.26H88.5452V9H87.7452V2.4H90.2452ZM90.2352 5.51C90.7086 5.51 91.0586 5.41333 91.2852 5.22C91.5186 5.02 91.6352 4.72333 91.6352 4.33C91.6352 3.93667 91.5186 3.64333 91.2852 3.45C91.0586 3.25 90.7086 3.15 90.2352 3.15H88.5452V5.51H90.2352ZM90.6952 5.67L92.8752 9H91.9252L90.0252 6.11L90.6952 5.67ZM96.797 2.3C97.4237 2.3 97.9637 2.44 98.417 2.72C98.877 2.99333 99.2304 3.38333 99.477 3.89C99.7304 4.39667 99.857 5 99.857 5.7C99.857 6.4 99.7304 7.00333 99.477 7.51C99.2304 8.01667 98.877 8.41 98.417 8.69C97.9637 8.96333 97.4237 9.1 96.797 9.1C96.1704 9.1 95.627 8.96333 95.167 8.69C94.7137 8.41 94.3604 8.01667 94.107 7.51C93.8604 7.00333 93.737 6.4 93.737 5.7C93.737 5 93.8604 4.39667 94.107 3.89C94.3604 3.38333 94.7137 2.99333 95.167 2.72C95.627 2.44 96.1704 2.3 96.797 2.3ZM96.797 3.05C96.3437 3.05 95.9504 3.15667 95.617 3.37C95.2837 3.57667 95.027 3.88 94.847 4.28C94.667 4.67333 94.577 5.14667 94.577 5.7C94.577 6.25333 94.667 6.73 94.847 7.13C95.027 7.52333 95.2837 7.82667 95.617 8.04C95.9504 8.24667 96.3437 8.35 96.797 8.35C97.257 8.35 97.6504 8.24667 97.977 8.04C98.3104 7.82667 98.567 7.52333 98.747 7.13C98.927 6.73 99.017 6.25333 99.017 5.7C99.017 5.14667 98.927 4.67333 98.747 4.28C98.567 3.88 98.3104 3.57667 97.977 3.37C97.6504 3.15667 97.257 3.05 96.797 3.05ZM101.418 9V2.4H103.768C104.548 2.4 105.118 2.56333 105.478 2.89C105.838 3.21667 106.018 3.66 106.018 4.22C106.018 4.55333 105.921 4.85667 105.728 5.13C105.534 5.39667 105.261 5.56667 104.908 5.64V5.65C105.301 5.72333 105.611 5.90333 105.838 6.19C106.071 6.47 106.188 6.79 106.188 7.15C106.188 7.71 105.978 8.16 105.558 8.5C105.138 8.83333 104.538 9 103.758 9H101.418ZM102.218 8.25H103.948C104.421 8.25 104.771 8.15333 104.998 7.96C105.231 7.76667 105.348 7.49667 105.348 7.15C105.348 6.79667 105.231 6.52667 104.998 6.34C104.771 6.14667 104.421 6.05 103.948 6.05H102.218V8.25ZM102.218 5.3H103.778C104.711 5.3 105.178 4.94 105.178 4.22C105.178 3.50667 104.711 3.15 103.778 3.15H102.218V5.3ZM112.913 9H112.063L111.363 7.17H108.373L107.673 9H106.833L109.403 2.4H110.353L112.913 9ZM108.663 6.42H111.073L109.863 3.17L108.663 6.42ZM116.185 2.4C117.218 2.4 118.028 2.68667 118.615 3.26C119.208 3.82667 119.505 4.64 119.505 5.7C119.505 6.76 119.208 7.57667 118.615 8.15C118.028 8.71667 117.218 9 116.185 9H114.055V2.4H116.185ZM116.265 8.25C117.018 8.25 117.605 8.02667 118.025 7.58C118.451 7.12667 118.665 6.5 118.665 5.7C118.665 4.9 118.451 4.27667 118.025 3.83C117.605 3.37667 117.018 3.15 116.265 3.15H114.855V8.25H116.265ZM126.097 9H125.247L124.547 7.17H121.557L120.857 9H120.017L122.587 2.4H123.537L126.097 9ZM121.847 6.42H124.257L123.047 3.17L121.847 6.42Z" fill="#F4F4F4"/>
<path d="M28.4 21.31C28.26 21.6833 28.06 22.0067 27.8 22.28C27.54 22.5467 27.2333 22.75 26.88 22.89C26.5333 23.03 26.1533 23.1 25.74 23.1C25.1133 23.1 24.57 22.9633 24.11 22.69C23.6567 22.41 23.3033 22.0167 23.05 21.51C22.8033 21.0033 22.68 20.4 22.68 19.7C22.68 19 22.8033 18.3967 23.05 17.89C23.3033 17.3833 23.6567 16.9933 24.11 16.72C24.57 16.44 25.1067 16.3 25.72 16.3C26.1467 16.3 26.5267 16.36 26.86 16.48C27.1933 16.5933 27.4767 16.7667 27.71 17C27.95 17.2267 28.14 17.5067 28.28 17.84L27.49 18.21C27.3433 17.83 27.13 17.5433 26.85 17.35C26.5767 17.15 26.22 17.05 25.78 17.05C25.3333 17.05 24.94 17.1567 24.6 17.37C24.26 17.5767 23.9933 17.8767 23.8 18.27C23.6133 18.6633 23.52 19.14 23.52 19.7C23.52 20.2533 23.61 20.73 23.79 21.13C23.97 21.5233 24.2267 21.8267 24.56 22.04C24.8933 22.2467 25.2867 22.35 25.74 22.35C26.18 22.35 26.5633 22.24 26.89 22.02C27.2167 21.7933 27.4533 21.4567 27.6 21.01L28.4 21.31ZM31.6555 17.9C32.1288 17.9 32.5455 18.0033 32.9055 18.21C33.2721 18.4167 33.5588 18.7167 33.7655 19.11C33.9721 19.4967 34.0755 19.96 34.0755 20.5C34.0755 21.04 33.9721 21.5067 33.7655 21.9C33.5588 22.2867 33.2721 22.5833 32.9055 22.79C32.5455 22.9967 32.1288 23.1 31.6555 23.1C31.1888 23.1 30.7721 22.9967 30.4055 22.79C30.0388 22.5833 29.7521 22.2867 29.5455 21.9C29.3388 21.5067 29.2355 21.04 29.2355 20.5C29.2355 19.96 29.3388 19.4967 29.5455 19.11C29.7521 18.7167 30.0388 18.4167 30.4055 18.21C30.7721 18.0033 31.1888 17.9 31.6555 17.9ZM31.6555 18.59C31.3155 18.59 31.0255 18.6667 30.7855 18.82C30.5455 18.9733 30.3588 19.1933 30.2255 19.48C30.0988 19.76 30.0355 20.1 30.0355 20.5C30.0355 20.8933 30.0988 21.2333 30.2255 21.52C30.3588 21.8067 30.5455 22.0267 30.7855 22.18C31.0255 22.3333 31.3155 22.41 31.6555 22.41C31.9955 22.41 32.2855 22.3333 32.5255 22.18C32.7655 22.0267 32.9488 21.8067 33.0755 21.52C33.2088 21.2333 33.2755 20.8933 33.2755 20.5C33.2755 20.1 33.2088 19.76 33.0755 19.48C32.9488 19.1933 32.7655 18.9733 32.5255 18.82C32.2855 18.6667 31.9955 18.59 31.6555 18.59ZM35.3816 23V18H36.0816L36.1516 19.12L36.0216 19.01C36.1282 18.7433 36.2716 18.53 36.4516 18.37C36.6316 18.2033 36.8382 18.0833 37.0716 18.01C37.3116 17.9367 37.5582 17.9 37.8116 17.9C38.1716 17.9 38.4982 17.97 38.7916 18.11C39.0849 18.2433 39.3182 18.45 39.4916 18.73C39.6716 19.01 39.7616 19.3667 39.7616 19.8V23H38.9616V20.08C38.9616 19.5267 38.8416 19.1433 38.6016 18.93C38.3682 18.71 38.0782 18.6 37.7316 18.6C37.4916 18.6 37.2516 18.6567 37.0116 18.77C36.7716 18.8833 36.5716 19.0667 36.4116 19.32C36.2582 19.5733 36.1816 19.9133 36.1816 20.34V23H35.3816ZM44.5812 23V18H45.2812L45.3312 18.78C45.5112 18.4733 45.7445 18.25 46.0312 18.11C46.3245 17.97 46.6245 17.9 46.9312 17.9C47.2845 17.9 47.6178 17.98 47.9312 18.14C48.2445 18.3 48.4845 18.5467 48.6512 18.88C48.7578 18.6533 48.9078 18.47 49.1012 18.33C49.2945 18.1833 49.5045 18.0767 49.7312 18.01C49.9645 17.9367 50.1845 17.9 50.3912 17.9C50.7112 17.9 51.0145 17.9667 51.3012 18.1C51.5945 18.2333 51.8345 18.44 52.0212 18.72C52.2078 19 52.3012 19.36 52.3012 19.8V23H51.5012V19.88C51.5012 19.4267 51.3878 19.1 51.1612 18.9C50.9345 18.7 50.6545 18.6 50.3212 18.6C50.0612 18.6 49.8178 18.6633 49.5912 18.79C49.3645 18.9167 49.1812 19.1033 49.0412 19.35C48.9078 19.5967 48.8412 19.9 48.8412 20.26V23H48.0412V19.88C48.0412 19.4267 47.9278 19.1 47.7012 18.9C47.4745 18.7 47.1945 18.6 46.8612 18.6C46.6412 18.6 46.4145 18.66 46.1812 18.78C45.9545 18.8933 45.7645 19.0767 45.6112 19.33C45.4578 19.5833 45.3812 19.9167 45.3812 20.33V23H44.5812ZM56.8324 19.77C56.8324 19.3967 56.7324 19.11 56.5324 18.91C56.3324 18.7033 56.0491 18.6 55.6824 18.6C55.3358 18.6 55.0424 18.6767 54.8024 18.83C54.5624 18.9767 54.3858 19.2167 54.2724 19.55L53.6224 19.15C53.7558 18.7767 54.0024 18.4767 54.3624 18.25C54.7224 18.0167 55.1691 17.9 55.7024 17.9C56.0624 17.9 56.3891 17.9633 56.6824 18.09C56.9758 18.21 57.2058 18.3967 57.3724 18.65C57.5458 18.8967 57.6324 19.2167 57.6324 19.61V22.03C57.6324 22.27 57.7591 22.39 58.0124 22.39C58.1391 22.39 58.2624 22.3733 58.3824 22.34L58.3424 22.97C58.2091 23.0367 58.0358 23.07 57.8224 23.07C57.6291 23.07 57.4558 23.0333 57.3024 22.96C57.1491 22.8867 57.0291 22.7767 56.9424 22.63C56.8558 22.4767 56.8124 22.2867 56.8124 22.06V21.96L57.0124 21.99C56.9324 22.25 56.7958 22.4633 56.6024 22.63C56.4091 22.79 56.1924 22.91 55.9524 22.99C55.7124 23.0633 55.4758 23.1 55.2424 23.1C54.9491 23.1 54.6758 23.05 54.4224 22.95C54.1691 22.85 53.9658 22.7 53.8124 22.5C53.6658 22.2933 53.5924 22.04 53.5924 21.74C53.5924 21.3667 53.7158 21.06 53.9624 20.82C54.2158 20.5733 54.5658 20.4067 55.0124 20.32L56.9924 19.93V20.59L55.3824 20.92C55.0558 20.9867 54.8124 21.08 54.6524 21.2C54.4924 21.32 54.4124 21.4867 54.4124 21.7C54.4124 21.9067 54.4924 22.0767 54.6524 22.21C54.8191 22.3367 55.0524 22.4 55.3524 22.4C55.5458 22.4 55.7291 22.3767 55.9024 22.33C56.0824 22.2767 56.2424 22.2 56.3824 22.1C56.5224 21.9933 56.6324 21.8633 56.7124 21.71C56.7924 21.55 56.8324 21.3633 56.8324 21.15V19.77ZM56.0124 15.5H56.8824L55.9024 17.17H55.2524L56.0124 15.5ZM61.1765 23.1C60.6898 23.1 60.2398 22.9967 59.8265 22.79C59.4198 22.5833 59.1065 22.29 58.8865 21.91L59.5665 21.42C59.7132 21.7267 59.9265 21.9667 60.2065 22.14C60.4932 22.3133 60.8365 22.4 61.2365 22.4C61.5898 22.4 61.8665 22.3333 62.0665 22.2C62.2665 22.06 62.3665 21.88 62.3665 21.66C62.3665 21.52 62.3198 21.3933 62.2265 21.28C62.1398 21.16 61.9698 21.0733 61.7165 21.02L60.5165 20.77C60.0298 20.67 59.6798 20.5033 59.4665 20.27C59.2598 20.0367 59.1565 19.7467 59.1565 19.4C59.1565 19.1267 59.2332 18.8767 59.3865 18.65C59.5465 18.4233 59.7698 18.2433 60.0565 18.11C60.3498 17.97 60.6932 17.9 61.0865 17.9C61.5798 17.9 61.9965 17.9967 62.3365 18.19C62.6765 18.3833 62.9298 18.6567 63.0965 19.01L62.4265 19.45C62.3132 19.1567 62.1298 18.9433 61.8765 18.81C61.6232 18.67 61.3598 18.6 61.0865 18.6C60.8465 18.6 60.6398 18.6333 60.4665 18.7C60.2998 18.7667 60.1698 18.86 60.0765 18.98C59.9898 19.0933 59.9465 19.2233 59.9465 19.37C59.9465 19.5167 59.9965 19.6533 60.0965 19.78C60.1965 19.9 60.3832 19.9867 60.6565 20.04L61.9065 20.3C62.3732 20.3933 62.6998 20.5467 62.8865 20.76C63.0732 20.9733 63.1665 21.2333 63.1665 21.54C63.1665 21.8533 63.0832 22.13 62.9165 22.37C62.7498 22.6033 62.5165 22.7833 62.2165 22.91C61.9165 23.0367 61.5698 23.1 61.1765 23.1ZM69.6081 23.1C69.1948 23.1 68.8148 22.9967 68.4681 22.79C68.1215 22.5833 67.8448 22.2867 67.6381 21.9C67.4315 21.5067 67.3281 21.04 67.3281 20.5C67.3281 19.9467 67.4381 19.4767 67.6581 19.09C67.8781 18.7033 68.1681 18.41 68.5281 18.21C68.8881 18.0033 69.2748 17.9 69.6881 17.9C70.1015 17.9 70.4581 18.0067 70.7581 18.22C71.0648 18.4333 71.2681 18.7167 71.3681 19.07L71.2681 19.14V15.7H72.0681V23H71.3681L71.2981 21.79L71.4081 21.73C71.3615 22.0233 71.2481 22.2733 71.0681 22.48C70.8948 22.68 70.6781 22.8333 70.4181 22.94C70.1648 23.0467 69.8948 23.1 69.6081 23.1ZM69.6881 22.4C70.0081 22.4 70.2848 22.32 70.5181 22.16C70.7581 22 70.9415 21.7733 71.0681 21.48C71.2015 21.18 71.2681 20.83 71.2681 20.43C71.2681 20.05 71.2015 19.7233 71.0681 19.45C70.9415 19.1767 70.7615 18.9667 70.5281 18.82C70.3015 18.6733 70.0348 18.6 69.7281 18.6C69.2215 18.6 68.8281 18.7733 68.5481 19.12C68.2681 19.4667 68.1281 19.9267 68.1281 20.5C68.1281 21.0733 68.2648 21.5333 68.5381 21.88C68.8115 22.2267 69.1948 22.4 69.6881 22.4ZM75.8177 23.1C75.3443 23.1 74.921 22.9967 74.5477 22.79C74.181 22.5833 73.8943 22.2867 73.6877 21.9C73.481 21.5067 73.3777 21.04 73.3777 20.5C73.3777 19.96 73.481 19.4967 73.6877 19.11C73.8943 18.7167 74.1777 18.4167 74.5377 18.21C74.8977 18.0033 75.3077 17.9 75.7677 17.9C76.2343 17.9 76.631 18 76.9577 18.2C77.291 18.4 77.5443 18.6733 77.7177 19.02C77.891 19.36 77.9777 19.7433 77.9777 20.17C77.9777 20.2833 77.9743 20.3867 77.9677 20.48C77.961 20.5733 77.951 20.6567 77.9377 20.73H73.8977V20.02H77.5877L77.1777 20.1C77.1777 19.62 77.0443 19.25 76.7777 18.99C76.5177 18.73 76.1743 18.6 75.7477 18.6C75.421 18.6 75.1377 18.6767 74.8977 18.83C74.6643 18.9767 74.481 19.1933 74.3477 19.48C74.221 19.76 74.1577 20.1 74.1577 20.5C74.1577 20.8933 74.2243 21.2333 74.3577 21.52C74.491 21.8067 74.6777 22.0267 74.9177 22.18C75.1643 22.3267 75.4577 22.4 75.7977 22.4C76.1643 22.4 76.461 22.33 76.6877 22.19C76.921 22.05 77.1077 21.86 77.2477 21.62L77.8777 21.99C77.751 22.2167 77.5877 22.4133 77.3877 22.58C77.1943 22.7467 76.9643 22.8767 76.6977 22.97C76.4377 23.0567 76.1443 23.1 75.8177 23.1ZM83.462 23V18.16C83.462 18.0467 83.462 17.9267 83.462 17.8C83.4687 17.6667 83.4754 17.53 83.482 17.39C83.2554 17.61 82.992 17.8033 82.692 17.97C82.392 18.13 82.0854 18.2467 81.772 18.32L81.562 17.59C81.682 17.5767 81.832 17.5333 82.012 17.46C82.1987 17.38 82.392 17.2833 82.592 17.17C82.7987 17.05 82.9887 16.9233 83.162 16.79C83.3354 16.6567 83.4687 16.5267 83.562 16.4H84.262V23H83.462ZM86.4085 21.8C86.6018 21.8 86.7585 21.86 86.8785 21.98C86.9985 22.1 87.0585 22.2567 87.0585 22.45C87.0585 22.6433 86.9985 22.8 86.8785 22.92C86.7585 23.04 86.6018 23.1 86.4085 23.1C86.2152 23.1 86.0585 23.04 85.9385 22.92C85.8185 22.8 85.7585 22.6433 85.7585 22.45C85.7585 22.2567 85.8185 22.1 85.9385 21.98C86.0585 21.86 86.2152 21.8 86.4085 21.8ZM90.4006 23.1C89.654 23.1 89.0573 22.81 88.6106 22.23C88.164 21.65 87.9406 20.8067 87.9406 19.7C87.9406 18.5933 88.164 17.75 88.6106 17.17C89.0573 16.59 89.654 16.3 90.4006 16.3C91.154 16.3 91.7506 16.59 92.1906 17.17C92.6373 17.75 92.8606 18.5933 92.8606 19.7C92.8606 20.8067 92.6373 21.65 92.1906 22.23C91.7506 22.81 91.154 23.1 90.4006 23.1ZM90.4006 22.38C90.754 22.38 91.0506 22.28 91.2906 22.08C91.5373 21.8733 91.7206 21.57 91.8406 21.17C91.9673 20.77 92.0306 20.28 92.0306 19.7C92.0306 19.12 91.9673 18.63 91.8406 18.23C91.7206 17.83 91.5373 17.53 91.2906 17.33C91.0506 17.1233 90.754 17.02 90.4006 17.02C90.0473 17.02 89.7473 17.1233 89.5006 17.33C89.2606 17.53 89.0773 17.83 88.9506 18.23C88.8306 18.63 88.7706 19.12 88.7706 19.7C88.7706 20.28 88.8306 20.77 88.9506 21.17C89.0773 21.57 89.2606 21.8733 89.5006 22.08C89.7473 22.28 90.0473 22.38 90.4006 22.38ZM96.4213 23.1C95.6747 23.1 95.078 22.81 94.6313 22.23C94.1847 21.65 93.9613 20.8067 93.9613 19.7C93.9613 18.5933 94.1847 17.75 94.6313 17.17C95.078 16.59 95.6747 16.3 96.4213 16.3C97.1747 16.3 97.7713 16.59 98.2113 17.17C98.658 17.75 98.8813 18.5933 98.8813 19.7C98.8813 20.8067 98.658 21.65 98.2113 22.23C97.7713 22.81 97.1747 23.1 96.4213 23.1ZM96.4213 22.38C96.7747 22.38 97.0713 22.28 97.3113 22.08C97.558 21.8733 97.7413 21.57 97.8613 21.17C97.988 20.77 98.0513 20.28 98.0513 19.7C98.0513 19.12 97.988 18.63 97.8613 18.23C97.7413 17.83 97.558 17.53 97.3113 17.33C97.0713 17.1233 96.7747 17.02 96.4213 17.02C96.068 17.02 95.768 17.1233 95.5213 17.33C95.2813 17.53 95.098 17.83 94.9713 18.23C94.8513 18.63 94.7913 19.12 94.7913 19.7C94.7913 20.28 94.8513 20.77 94.9713 21.17C95.098 21.57 95.2813 21.8733 95.5213 22.08C95.768 22.28 96.068 22.38 96.4213 22.38ZM102.442 23.1C101.695 23.1 101.099 22.81 100.652 22.23C100.205 21.65 99.982 20.8067 99.982 19.7C99.982 18.5933 100.205 17.75 100.652 17.17C101.099 16.59 101.695 16.3 102.442 16.3C103.195 16.3 103.792 16.59 104.232 17.17C104.679 17.75 104.902 18.5933 104.902 19.7C104.902 20.8067 104.679 21.65 104.232 22.23C103.792 22.81 103.195 23.1 102.442 23.1ZM102.442 22.38C102.795 22.38 103.092 22.28 103.332 22.08C103.579 21.8733 103.762 21.57 103.882 21.17C104.009 20.77 104.072 20.28 104.072 19.7C104.072 19.12 104.009 18.63 103.882 18.23C103.762 17.83 103.579 17.53 103.332 17.33C103.092 17.1233 102.795 17.02 102.442 17.02C102.089 17.02 101.789 17.1233 101.542 17.33C101.302 17.53 101.119 17.83 100.992 18.23C100.872 18.63 100.812 19.12 100.812 19.7C100.812 20.28 100.872 20.77 100.992 21.17C101.119 21.57 101.302 21.8733 101.542 22.08C101.789 22.28 102.089 22.38 102.442 22.38ZM109.891 17.04C109.711 17.04 109.564 16.9867 109.451 16.88C109.344 16.7667 109.291 16.62 109.291 16.44C109.291 16.26 109.344 16.1167 109.451 16.01C109.564 15.8967 109.711 15.84 109.891 15.84C110.071 15.84 110.214 15.8967 110.321 16.01C110.434 16.1167 110.491 16.26 110.491 16.44C110.491 16.62 110.434 16.7667 110.321 16.88C110.214 16.9867 110.071 17.04 109.891 17.04ZM110.291 18V23.51C110.291 23.9233 110.211 24.25 110.051 24.49C109.891 24.73 109.694 24.9 109.461 25C109.228 25.1 108.998 25.15 108.771 25.15C108.564 25.15 108.374 25.1167 108.201 25.05C108.028 24.99 107.884 24.9133 107.771 24.82L107.941 24.06C108.034 24.1467 108.151 24.22 108.291 24.28C108.431 24.34 108.588 24.37 108.761 24.37C108.974 24.37 109.148 24.3 109.281 24.16C109.421 24.02 109.491 23.7767 109.491 23.43V18H110.291ZM113.757 23.1C113.437 23.1 113.134 23.04 112.847 22.92C112.567 22.8 112.337 22.6067 112.157 22.34C111.984 22.0667 111.897 21.7133 111.897 21.28V18H112.697V21.07C112.697 21.5767 112.807 21.9267 113.027 22.12C113.247 22.3067 113.557 22.4 113.957 22.4C114.144 22.4 114.327 22.37 114.507 22.31C114.687 22.2433 114.847 22.1433 114.987 22.01C115.134 21.87 115.247 21.6933 115.327 21.48C115.414 21.2667 115.457 21.0133 115.457 20.72V18H116.257V23H115.557L115.507 22.24C115.334 22.54 115.097 22.76 114.797 22.9C114.504 23.0333 114.157 23.1 113.757 23.1ZM120.009 23.1C119.536 23.1 119.112 22.9967 118.739 22.79C118.372 22.5833 118.086 22.2867 117.879 21.9C117.672 21.5067 117.569 21.04 117.569 20.5C117.569 19.96 117.672 19.4967 117.879 19.11C118.086 18.7167 118.369 18.4167 118.729 18.21C119.089 18.0033 119.499 17.9 119.959 17.9C120.426 17.9 120.822 18 121.149 18.2C121.482 18.4 121.736 18.6733 121.909 19.02C122.082 19.36 122.169 19.7433 122.169 20.17C122.169 20.2833 122.166 20.3867 122.159 20.48C122.152 20.5733 122.142 20.6567 122.129 20.73H118.089V20.02H121.779L121.369 20.1C121.369 19.62 121.236 19.25 120.969 18.99C120.709 18.73 120.366 18.6 119.939 18.6C119.612 18.6 119.329 18.6767 119.089 18.83C118.856 18.9767 118.672 19.1933 118.539 19.48C118.412 19.76 118.349 20.1 118.349 20.5C118.349 20.8933 118.416 21.2333 118.549 21.52C118.682 21.8067 118.869 22.0267 119.109 22.18C119.356 22.3267 119.649 22.4 119.989 22.4C120.356 22.4 120.652 22.33 120.879 22.19C121.112 22.05 121.299 21.86 121.439 21.62L122.069 21.99C121.942 22.2167 121.779 22.4133 121.579 22.58C121.386 22.7467 121.156 22.8767 120.889 22.97C120.629 23.0567 120.336 23.1 120.009 23.1ZM127.701 17.08L127.881 17.79C127.874 17.79 127.864 17.79 127.851 17.79C127.837 17.79 127.824 17.79 127.811 17.79C127.484 17.79 127.231 17.8567 127.051 17.99C126.877 18.1167 126.791 18.3233 126.791 18.61L126.301 18.36C126.301 18.1 126.361 17.8733 126.481 17.68C126.601 17.4867 126.764 17.34 126.971 17.24C127.177 17.1333 127.404 17.08 127.651 17.08C127.657 17.08 127.664 17.08 127.671 17.08C127.684 17.08 127.694 17.08 127.701 17.08ZM126.181 22.36C126.654 22.36 127.024 22.47 127.291 22.69C127.557 22.9033 127.691 23.19 127.691 23.55C127.691 23.8767 127.581 24.16 127.361 24.4C127.147 24.64 126.857 24.8233 126.491 24.95C126.131 25.0833 125.724 25.15 125.271 25.15C124.484 25.15 123.894 25.0167 123.501 24.75C123.114 24.4833 122.921 24.1633 122.921 23.79C122.921 23.5233 123.007 23.2833 123.181 23.07C123.361 22.8633 123.661 22.7467 124.081 22.72L124.011 22.87C123.784 22.81 123.591 22.71 123.431 22.57C123.277 22.4233 123.201 22.2133 123.201 21.94C123.201 21.6667 123.301 21.4333 123.501 21.24C123.707 21.04 124.011 20.9167 124.411 20.87L124.941 21.14H124.841C124.514 21.1733 124.281 21.2567 124.141 21.39C124.007 21.5167 123.941 21.6567 123.941 21.81C123.941 21.9967 124.007 22.1367 124.141 22.23C124.281 22.3167 124.474 22.36 124.721 22.36H126.181ZM125.261 24.48C125.647 24.48 125.964 24.44 126.211 24.36C126.464 24.28 126.651 24.1767 126.771 24.05C126.891 23.9233 126.951 23.7867 126.951 23.64C126.951 23.46 126.877 23.3167 126.731 23.21C126.591 23.1033 126.334 23.05 125.961 23.05H124.421C124.207 23.05 124.027 23.1033 123.881 23.21C123.734 23.3233 123.661 23.4767 123.661 23.67C123.661 23.9167 123.801 24.1133 124.081 24.26C124.367 24.4067 124.761 24.48 125.261 24.48ZM125.191 17.9C125.591 17.9 125.944 17.9733 126.251 18.12C126.564 18.26 126.807 18.4567 126.981 18.71C127.154 18.9633 127.241 19.2567 127.241 19.59C127.241 19.9167 127.154 20.21 126.981 20.47C126.807 20.7233 126.564 20.9233 126.251 21.07C125.944 21.21 125.591 21.28 125.191 21.28C124.531 21.28 124.024 21.1233 123.671 20.81C123.317 20.49 123.141 20.0833 123.141 19.59C123.141 19.2567 123.227 18.9633 123.401 18.71C123.581 18.4567 123.824 18.26 124.131 18.12C124.437 17.9733 124.791 17.9 125.191 17.9ZM125.191 18.55C124.844 18.55 124.554 18.6467 124.321 18.84C124.087 19.0267 123.971 19.2767 123.971 19.59C123.971 19.8967 124.087 20.1467 124.321 20.34C124.554 20.5333 124.844 20.63 125.191 20.63C125.537 20.63 125.827 20.5333 126.061 20.34C126.294 20.1467 126.411 19.8967 126.411 19.59C126.411 19.2767 126.294 19.0267 126.061 18.84C125.827 18.6467 125.537 18.55 125.191 18.55ZM130.683 17.9C131.156 17.9 131.573 18.0033 131.933 18.21C132.299 18.4167 132.586 18.7167 132.793 19.11C132.999 19.4967 133.103 19.96 133.103 20.5C133.103 21.04 132.999 21.5067 132.793 21.9C132.586 22.2867 132.299 22.5833 131.933 22.79C131.573 22.9967 131.156 23.1 130.683 23.1C130.216 23.1 129.799 22.9967 129.433 22.79C129.066 22.5833 128.779 22.2867 128.573 21.9C128.366 21.5067 128.263 21.04 128.263 20.5C128.263 19.96 128.366 19.4967 128.573 19.11C128.779 18.7167 129.066 18.4167 129.433 18.21C129.799 18.0033 130.216 17.9 130.683 17.9ZM130.683 18.59C130.343 18.59 130.053 18.6667 129.813 18.82C129.573 18.9733 129.386 19.1933 129.253 19.48C129.126 19.76 129.063 20.1 129.063 20.5C129.063 20.8933 129.126 21.2333 129.253 21.52C129.386 21.8067 129.573 22.0267 129.813 22.18C130.053 22.3333 130.343 22.41 130.683 22.41C131.023 22.41 131.313 22.3333 131.553 22.18C131.793 22.0267 131.976 21.8067 132.103 21.52C132.236 21.2333 132.303 20.8933 132.303 20.5C132.303 20.1 132.236 19.76 132.103 19.48C131.976 19.1933 131.793 18.9733 131.553 18.82C131.313 18.6667 131.023 18.59 130.683 18.59ZM136.209 23.1C135.722 23.1 135.272 22.9967 134.859 22.79C134.452 22.5833 134.139 22.29 133.919 21.91L134.599 21.42C134.746 21.7267 134.959 21.9667 135.239 22.14C135.526 22.3133 135.869 22.4 136.269 22.4C136.622 22.4 136.899 22.3333 137.099 22.2C137.299 22.06 137.399 21.88 137.399 21.66C137.399 21.52 137.352 21.3933 137.259 21.28C137.172 21.16 137.002 21.0733 136.749 21.02L135.549 20.77C135.062 20.67 134.712 20.5033 134.499 20.27C134.292 20.0367 134.189 19.7467 134.189 19.4C134.189 19.1267 134.266 18.8767 134.419 18.65C134.579 18.4233 134.802 18.2433 135.089 18.11C135.382 17.97 135.726 17.9 136.119 17.9C136.612 17.9 137.029 17.9967 137.369 18.19C137.709 18.3833 137.962 18.6567 138.129 19.01L137.459 19.45C137.346 19.1567 137.162 18.9433 136.909 18.81C136.656 18.67 136.392 18.6 136.119 18.6C135.879 18.6 135.672 18.6333 135.499 18.7C135.332 18.7667 135.202 18.86 135.109 18.98C135.022 19.0933 134.979 19.2233 134.979 19.37C134.979 19.5167 135.029 19.6533 135.129 19.78C135.229 19.9 135.416 19.9867 135.689 20.04L136.939 20.3C137.406 20.3933 137.732 20.5467 137.919 20.76C138.106 20.9733 138.199 21.2333 138.199 21.54C138.199 21.8533 138.116 22.13 137.949 22.37C137.782 22.6033 137.549 22.7833 137.249 22.91C136.949 23.0367 136.602 23.1 136.209 23.1Z" fill="#F4F4F4"/>
</svg>
