<svg width="158" height="26" viewBox="0 0 158 26" fill="none" xmlns="http://www.w3.org/2000/svg">
<path d="M12.48 14.84C12.7133 14.2733 12.84 13.6667 12.84 13C12.84 12.52 12.7666 12.06 12.64 11.6333C12.2066 11.7333 11.7533 11.7867 11.28 11.7867C9.23998 11.7867 7.43331 10.78 6.33331 9.22666C5.73998 10.6667 4.60665 11.84 3.17998 12.48C3.15331 12.6467 3.15331 12.8267 3.15331 13C3.15331 14.2854 3.66394 15.5182 4.57287 16.4271C5.4818 17.336 6.71456 17.8467 7.99998 17.8467C8.69998 17.8467 9.37331 17.6933 9.97998 17.42C10.36 18.1467 10.5333 18.5067 10.52 18.5067C9.42665 18.8733 8.57998 19.0533 7.99998 19.0533C6.38665 19.0533 4.84665 18.42 3.71331 17.28C3.01998 16.5867 2.50665 15.74 2.21998 14.82H1.33331V11.7867H2.05998C2.61998 9.02666 5.06665 6.94666 7.99998 6.94666C9.59998 6.94666 11.14 7.57999 12.28 8.71999C13.1266 9.55999 13.6933 10.6333 13.9266 11.7867H14.6666V14.78V14.7933V14.82H14.6266L12.2533 17L8.71998 16.6V15.4867H11.94L12.48 14.84ZM6.17998 12.8467C6.37998 12.8467 6.57331 12.9267 6.71331 13.0733C6.85331 13.2133 6.93331 13.4067 6.93331 13.6067C6.93331 13.8067 6.85331 14 6.71331 14.14C6.57331 14.28 6.37998 14.36 6.17998 14.36C5.75998 14.36 5.41998 14.0267 5.41998 13.6067C5.41998 13.1867 5.75998 12.8467 6.17998 12.8467ZM9.81331 12.8467C10.2333 12.8467 10.5666 13.1867 10.5666 13.6067C10.5666 14.0267 10.2333 14.36 9.81331 14.36C9.39331 14.36 9.05331 14.0267 9.05331 13.6067C9.05331 13.4051 9.13339 13.2118 9.27591 13.0693C9.41844 12.9267 9.61175 12.8467 9.81331 12.8467Z" fill="#F4F4F4"/>
<path d="M25.2 2.3C25.78 2.3 26.28 2.42 26.7 2.66C27.12 2.89333 27.47 3.24 27.75 3.7L27.08 4.22C26.8333 3.79333 26.5533 3.49333 26.24 3.32C25.9333 3.14 25.56 3.05 25.12 3.05C24.7667 3.05 24.4733 3.1 24.24 3.2C24.0133 3.3 23.8467 3.43333 23.74 3.6C23.6333 3.76 23.58 3.94333 23.58 4.15C23.58 4.38333 23.6533 4.59 23.8 4.77C23.9467 4.94333 24.24 5.08 24.68 5.18L26.11 5.5C26.7433 5.64 27.1833 5.85333 27.43 6.14C27.6833 6.42 27.81 6.77 27.81 7.19C27.81 7.56333 27.7033 7.89667 27.49 8.19C27.2833 8.47667 26.99 8.7 26.61 8.86C26.23 9.02 25.7833 9.1 25.27 9.1C24.79 9.1 24.3667 9.03667 24 8.91C23.64 8.77667 23.33 8.6 23.07 8.38C22.81 8.16 22.5967 7.91333 22.43 7.64L23.13 7.07C23.2567 7.32333 23.42 7.54667 23.62 7.74C23.82 7.93333 24.06 8.08333 24.34 8.19C24.6267 8.29667 24.9533 8.35 25.32 8.35C25.66 8.35 25.9533 8.31 26.2 8.23C26.4533 8.14333 26.6467 8.02 26.78 7.86C26.9133 7.69333 26.98 7.49333 26.98 7.26C26.98 7.04667 26.91 6.85667 26.77 6.69C26.63 6.51667 26.3667 6.38667 25.98 6.3L24.43 5.95C24.0233 5.85667 23.6933 5.73 23.44 5.57C23.1933 5.40333 23.0133 5.21 22.9 4.99C22.7933 4.76333 22.74 4.52 22.74 4.26C22.74 3.90667 22.8367 3.58333 23.03 3.29C23.23 2.99 23.5133 2.75 23.88 2.57C24.2533 2.39 24.6933 2.3 25.2 2.3ZM31.9463 2.3C32.5729 2.3 33.1129 2.44 33.5663 2.72C34.0263 2.99333 34.3796 3.38333 34.6263 3.89C34.8796 4.39667 35.0063 5 35.0063 5.7C35.0063 6.4 34.8796 7.00333 34.6263 7.51C34.3796 8.01667 34.0263 8.41 33.5663 8.69C33.1129 8.96333 32.5729 9.1 31.9463 9.1C31.3196 9.1 30.7763 8.96333 30.3163 8.69C29.8629 8.41 29.5096 8.01667 29.2563 7.51C29.0096 7.00333 28.8863 6.4 28.8863 5.7C28.8863 5 29.0096 4.39667 29.2563 3.89C29.5096 3.38333 29.8629 2.99333 30.3163 2.72C30.7763 2.44 31.3196 2.3 31.9463 2.3ZM31.9463 3.05C31.4929 3.05 31.0996 3.15667 30.7663 3.37C30.4329 3.57667 30.1763 3.88 29.9963 4.28C29.8163 4.67333 29.7263 5.14667 29.7263 5.7C29.7263 6.25333 29.8163 6.73 29.9963 7.13C30.1763 7.52333 30.4329 7.82667 30.7663 8.04C31.0996 8.24667 31.4929 8.35 31.9463 8.35C32.4063 8.35 32.7996 8.24667 33.1263 8.04C33.4596 7.82667 33.7163 7.52333 33.8963 7.13C34.0763 6.73 34.1663 6.25333 34.1663 5.7C34.1663 5.14667 34.0763 4.67333 33.8963 4.28C33.7163 3.88 33.4596 3.57667 33.1263 3.37C32.7996 3.15667 32.4063 3.05 31.9463 3.05ZM38.8967 2.4C39.3434 2.4 39.7301 2.48333 40.0567 2.65C40.3901 2.81 40.6501 3.04 40.8367 3.34C41.0234 3.64 41.1167 3.99667 41.1167 4.41C41.1167 4.82333 41.0234 5.18 40.8367 5.48C40.6501 5.78 40.3901 6.01333 40.0567 6.18C39.7301 6.34 39.3434 6.42 38.8967 6.42H37.3667V9H36.5667V2.4H38.8967ZM38.7767 5.67C39.2967 5.67 39.6767 5.56333 39.9167 5.35C40.1567 5.13 40.2767 4.81667 40.2767 4.41C40.2767 3.99667 40.1567 3.68333 39.9167 3.47C39.6767 3.25667 39.2967 3.15 38.7767 3.15H37.3667V5.67H38.7767ZM45.1302 2.3C45.7569 2.3 46.2969 2.44 46.7502 2.72C47.2102 2.99333 47.5636 3.38333 47.8102 3.89C48.0636 4.39667 48.1902 5 48.1902 5.7C48.1902 6.4 48.0636 7.00333 47.8102 7.51C47.5636 8.01667 47.2102 8.41 46.7502 8.69C46.2969 8.96333 45.7569 9.1 45.1302 9.1C44.5036 9.1 43.9602 8.96333 43.5002 8.69C43.0469 8.41 42.6936 8.01667 42.4402 7.51C42.1936 7.00333 42.0702 6.4 42.0702 5.7C42.0702 5 42.1936 4.39667 42.4402 3.89C42.6936 3.38333 43.0469 2.99333 43.5002 2.72C43.9602 2.44 44.5036 2.3 45.1302 2.3ZM45.1302 3.05C44.6769 3.05 44.2836 3.15667 43.9502 3.37C43.6169 3.57667 43.3602 3.88 43.1802 4.28C43.0002 4.67333 42.9102 5.14667 42.9102 5.7C42.9102 6.25333 43.0002 6.73 43.1802 7.13C43.3602 7.52333 43.6169 7.82667 43.9502 8.04C44.2836 8.24667 44.6769 8.35 45.1302 8.35C45.5902 8.35 45.9836 8.24667 46.3102 8.04C46.6436 7.82667 46.9002 7.52333 47.0802 7.13C47.2602 6.73 47.3502 6.25333 47.3502 5.7C47.3502 5.14667 47.2602 4.67333 47.0802 4.28C46.9002 3.88 46.6436 3.57667 46.3102 3.37C45.9836 3.15667 45.5902 3.05 45.1302 3.05ZM52.2507 2.4C52.924 2.4 53.464 2.57333 53.8707 2.92C54.2774 3.26667 54.4807 3.73667 54.4807 4.33C54.4807 4.92333 54.274 5.38667 53.8607 5.72C53.454 6.04667 52.914 6.21 52.2407 6.21L52.1707 6.26H50.5507V9H49.7507V2.4H52.2507ZM52.2407 5.51C52.714 5.51 53.064 5.41333 53.2907 5.22C53.524 5.02 53.6407 4.72333 53.6407 4.33C53.6407 3.93667 53.524 3.64333 53.2907 3.45C53.064 3.25 52.714 3.15 52.2407 3.15H50.5507V5.51H52.2407ZM52.7007 5.67L54.8807 9H53.9307L52.0307 6.11L52.7007 5.67ZM60.6458 2.4V3.15H58.3458V9H57.5458V3.15H55.2458V2.4H60.6458ZM61.8409 9V2.4H66.4709V3.15H62.6409V5.28H65.6209V6.03H62.6409V8.25H66.6209V9H61.8409ZM73.5561 2.4C74.0028 2.4 74.3894 2.48333 74.7161 2.65C75.0494 2.81 75.3094 3.04 75.4961 3.34C75.6828 3.64 75.7761 3.99667 75.7761 4.41C75.7761 4.82333 75.6828 5.18 75.4961 5.48C75.3094 5.78 75.0494 6.01333 74.7161 6.18C74.3894 6.34 74.0028 6.42 73.5561 6.42H72.0261V9H71.2261V2.4H73.5561ZM73.4361 5.67C73.9561 5.67 74.3361 5.56333 74.5761 5.35C74.8161 5.13 74.9361 4.81667 74.9361 4.41C74.9361 3.99667 74.8161 3.68333 74.5761 3.47C74.3361 3.25667 73.9561 3.15 73.4361 3.15H72.0261V5.67H73.4361ZM77.1296 9V2.4H81.7596V3.15H77.9296V5.28H80.9096V6.03H77.9296V8.25H81.9096V9H77.1296ZM85.8066 2.4C86.4799 2.4 87.0199 2.57333 87.4266 2.92C87.8332 3.26667 88.0366 3.73667 88.0366 4.33C88.0366 4.92333 87.8299 5.38667 87.4166 5.72C87.0099 6.04667 86.4699 6.21 85.7966 6.21L85.7266 6.26H84.1066V9H83.3066V2.4H85.8066ZM85.7966 5.51C86.2699 5.51 86.6199 5.41333 86.8466 5.22C87.0799 5.02 87.1966 4.72333 87.1966 4.33C87.1966 3.93667 87.0799 3.64333 86.8466 3.45C86.6199 3.25 86.2699 3.15 85.7966 3.15H84.1066V5.51H85.7966ZM86.2566 5.67L88.4366 9H87.4866L85.5866 6.11L86.2566 5.67ZM91.877 2.3C92.457 2.3 92.957 2.42 93.377 2.66C93.797 2.89333 94.147 3.24 94.427 3.7L93.757 4.22C93.5103 3.79333 93.2303 3.49333 92.917 3.32C92.6103 3.14 92.237 3.05 91.797 3.05C91.4436 3.05 91.1503 3.1 90.917 3.2C90.6903 3.3 90.5236 3.43333 90.417 3.6C90.3103 3.76 90.257 3.94333 90.257 4.15C90.257 4.38333 90.3303 4.59 90.477 4.77C90.6236 4.94333 90.917 5.08 91.357 5.18L92.787 5.5C93.4203 5.64 93.8603 5.85333 94.107 6.14C94.3603 6.42 94.487 6.77 94.487 7.19C94.487 7.56333 94.3803 7.89667 94.167 8.19C93.9603 8.47667 93.667 8.7 93.287 8.86C92.907 9.02 92.4603 9.1 91.947 9.1C91.467 9.1 91.0436 9.03667 90.677 8.91C90.317 8.77667 90.007 8.6 89.747 8.38C89.487 8.16 89.2736 7.91333 89.107 7.64L89.807 7.07C89.9336 7.32333 90.097 7.54667 90.297 7.74C90.497 7.93333 90.737 8.08333 91.017 8.19C91.3036 8.29667 91.6303 8.35 91.997 8.35C92.337 8.35 92.6303 8.31 92.877 8.23C93.1303 8.14333 93.3236 8.02 93.457 7.86C93.5903 7.69333 93.657 7.49333 93.657 7.26C93.657 7.04667 93.587 6.85667 93.447 6.69C93.307 6.51667 93.0436 6.38667 92.657 6.3L91.107 5.95C90.7003 5.85667 90.3703 5.73 90.117 5.57C89.8703 5.40333 89.6903 5.21 89.577 4.99C89.4703 4.76333 89.417 4.52 89.417 4.26C89.417 3.90667 89.5136 3.58333 89.707 3.29C89.907 2.99 90.1903 2.75 90.557 2.57C90.9303 2.39 91.3703 2.3 91.877 2.3ZM98.6232 2.3C99.2499 2.3 99.7899 2.44 100.243 2.72C100.703 2.99333 101.057 3.38333 101.303 3.89C101.557 4.39667 101.683 5 101.683 5.7C101.683 6.4 101.557 7.00333 101.303 7.51C101.057 8.01667 100.703 8.41 100.243 8.69C99.7899 8.96333 99.2499 9.1 98.6232 9.1C97.9965 9.1 97.4532 8.96333 96.9932 8.69C96.5399 8.41 96.1865 8.01667 95.9332 7.51C95.6865 7.00333 95.5632 6.4 95.5632 5.7C95.5632 5 95.6865 4.39667 95.9332 3.89C96.1865 3.38333 96.5399 2.99333 96.9932 2.72C97.4532 2.44 97.9965 2.3 98.6232 2.3ZM98.6232 3.05C98.1699 3.05 97.7765 3.15667 97.4432 3.37C97.1099 3.57667 96.8532 3.88 96.6732 4.28C96.4932 4.67333 96.4032 5.14667 96.4032 5.7C96.4032 6.25333 96.4932 6.73 96.6732 7.13C96.8532 7.52333 97.1099 7.82667 97.4432 8.04C97.7765 8.24667 98.1699 8.35 98.6232 8.35C99.0832 8.35 99.4765 8.24667 99.8032 8.04C100.137 7.82667 100.393 7.52333 100.573 7.13C100.753 6.73 100.843 6.25333 100.843 5.7C100.843 5.14667 100.753 4.67333 100.573 4.28C100.393 3.88 100.137 3.57667 99.8032 3.37C99.4765 3.15667 99.0832 3.05 98.6232 3.05ZM108.424 2.4V9H107.434L104.674 4.58L103.974 3.34H103.964L104.004 4.34V9H103.244V2.4H104.234L106.984 6.8L107.694 8.07H107.704L107.664 7.06V2.4H108.424ZM115.647 9H114.797L114.097 7.17H111.107L110.407 9H109.567L112.137 2.4H113.087L115.647 9ZM111.397 6.42H113.807L112.597 3.17L111.397 6.42ZM117.589 8.25H121.369V9H116.789V2.4H117.589V8.25ZM123.366 2.4V9H122.566V2.4H123.366ZM125.525 8.54L125.385 8.25H129.995V9H124.805V8.29L129.145 2.86L129.285 3.15H124.905V2.4H129.865V3.11L125.525 8.54ZM136.683 9H135.833L135.133 7.17H132.143L131.443 9H130.603L133.173 2.4H134.123L136.683 9ZM132.433 6.42H134.843L133.633 3.17L132.433 6.42ZM139.955 2.4C140.988 2.4 141.798 2.68667 142.385 3.26C142.978 3.82667 143.275 4.64 143.275 5.7C143.275 6.76 142.978 7.57667 142.385 8.15C141.798 8.71667 140.988 9 139.955 9H137.825V2.4H139.955ZM140.035 8.25C140.788 8.25 141.375 8.02667 141.795 7.58C142.222 7.12667 142.435 6.5 142.435 5.7C142.435 4.9 142.222 4.27667 141.795 3.83C141.375 3.37667 140.788 3.15 140.035 3.15H138.625V8.25H140.035ZM147.492 2.3C148.119 2.3 148.659 2.44 149.112 2.72C149.572 2.99333 149.925 3.38333 150.172 3.89C150.425 4.39667 150.552 5 150.552 5.7C150.552 6.4 150.425 7.00333 150.172 7.51C149.925 8.01667 149.572 8.41 149.112 8.69C148.659 8.96333 148.119 9.1 147.492 9.1C146.865 9.1 146.322 8.96333 145.862 8.69C145.409 8.41 145.055 8.01667 144.802 7.51C144.555 7.00333 144.432 6.4 144.432 5.7C144.432 5 144.555 4.39667 144.802 3.89C145.055 3.38333 145.409 2.99333 145.862 2.72C146.322 2.44 146.865 2.3 147.492 2.3ZM147.492 3.05C147.039 3.05 146.645 3.15667 146.312 3.37C145.979 3.57667 145.722 3.88 145.542 4.28C145.362 4.67333 145.272 5.14667 145.272 5.7C145.272 6.25333 145.362 6.73 145.542 7.13C145.722 7.52333 145.979 7.82667 146.312 8.04C146.645 8.24667 147.039 8.35 147.492 8.35C147.952 8.35 148.345 8.24667 148.672 8.04C149.005 7.82667 149.262 7.52333 149.442 7.13C149.622 6.73 149.712 6.25333 149.712 5.7C149.712 5.14667 149.622 4.67333 149.442 4.28C149.262 3.88 149.005 3.57667 148.672 3.37C148.345 3.15667 147.952 3.05 147.492 3.05Z" fill="#F4F4F4"/>
<path d="M25.2 16.3C25.78 16.3 26.28 16.42 26.7 16.66C27.12 16.8933 27.47 17.24 27.75 17.7L27.08 18.22C26.8333 17.7933 26.5533 17.4933 26.24 17.32C25.9333 17.14 25.56 17.05 25.12 17.05C24.7667 17.05 24.4733 17.1 24.24 17.2C24.0133 17.3 23.8467 17.4333 23.74 17.6C23.6333 17.76 23.58 17.9433 23.58 18.15C23.58 18.3833 23.6533 18.59 23.8 18.77C23.9467 18.9433 24.24 19.08 24.68 19.18L26.11 19.5C26.7433 19.64 27.1833 19.8533 27.43 20.14C27.6833 20.42 27.81 20.77 27.81 21.19C27.81 21.5633 27.7033 21.8967 27.49 22.19C27.2833 22.4767 26.99 22.7 26.61 22.86C26.23 23.02 25.7833 23.1 25.27 23.1C24.79 23.1 24.3667 23.0367 24 22.91C23.64 22.7767 23.33 22.6 23.07 22.38C22.81 22.16 22.5967 21.9133 22.43 21.64L23.13 21.07C23.2567 21.3233 23.42 21.5467 23.62 21.74C23.82 21.9333 24.06 22.0833 24.34 22.19C24.6267 22.2967 24.9533 22.35 25.32 22.35C25.66 22.35 25.9533 22.31 26.2 22.23C26.4533 22.1433 26.6467 22.02 26.78 21.86C26.9133 21.6933 26.98 21.4933 26.98 21.26C26.98 21.0467 26.91 20.8567 26.77 20.69C26.63 20.5167 26.3667 20.3867 25.98 20.3L24.43 19.95C24.0233 19.8567 23.6933 19.73 23.44 19.57C23.1933 19.4033 23.0133 19.21 22.9 18.99C22.7933 18.7633 22.74 18.52 22.74 18.26C22.74 17.9067 22.8367 17.5833 23.03 17.29C23.23 16.99 23.5133 16.75 23.88 16.57C24.2533 16.39 24.6933 16.3 25.2 16.3ZM31.2063 17.9C31.6796 17.9 32.0963 18.0033 32.4563 18.21C32.8229 18.4167 33.1096 18.7167 33.3163 19.11C33.5229 19.4967 33.6263 19.96 33.6263 20.5C33.6263 21.04 33.5229 21.5067 33.3163 21.9C33.1096 22.2867 32.8229 22.5833 32.4563 22.79C32.0963 22.9967 31.6796 23.1 31.2063 23.1C30.7396 23.1 30.3229 22.9967 29.9563 22.79C29.5896 22.5833 29.3029 22.2867 29.0963 21.9C28.8896 21.5067 28.7863 21.04 28.7863 20.5C28.7863 19.96 28.8896 19.4967 29.0963 19.11C29.3029 18.7167 29.5896 18.4167 29.9563 18.21C30.3229 18.0033 30.7396 17.9 31.2063 17.9ZM31.2063 18.59C30.8663 18.59 30.5763 18.6667 30.3363 18.82C30.0963 18.9733 29.9096 19.1933 29.7763 19.48C29.6496 19.76 29.5863 20.1 29.5863 20.5C29.5863 20.8933 29.6496 21.2333 29.7763 21.52C29.9096 21.8067 30.0963 22.0267 30.3363 22.18C30.5763 22.3333 30.8663 22.41 31.2063 22.41C31.5463 22.41 31.8363 22.3333 32.0763 22.18C32.3163 22.0267 32.4996 21.8067 32.6263 21.52C32.7596 21.2333 32.8263 20.8933 32.8263 20.5C32.8263 20.1 32.7596 19.76 32.6263 19.48C32.4996 19.1933 32.3163 18.9733 32.0763 18.82C31.8363 18.6667 31.5463 18.59 31.2063 18.59ZM34.9323 25.1V18H35.6323L35.7023 19.22L35.5923 19.08C35.679 18.8467 35.809 18.6433 35.9823 18.47C36.1557 18.29 36.3657 18.15 36.6123 18.05C36.859 17.95 37.1257 17.9 37.4123 17.9C37.819 17.9 38.1923 18.0033 38.5323 18.21C38.879 18.4167 39.1557 18.7133 39.3623 19.1C39.569 19.4867 39.6723 19.9533 39.6723 20.5C39.6723 21.04 39.5657 21.5067 39.3523 21.9C39.1457 22.2867 38.869 22.5833 38.5223 22.79C38.1757 22.9967 37.7957 23.1 37.3823 23.1C36.969 23.1 36.6057 23 36.2923 22.8C35.9857 22.5933 35.7657 22.3333 35.6323 22.02L35.7323 21.87V25.1H34.9323ZM37.3023 22.4C37.7957 22.4 38.179 22.2267 38.4523 21.88C38.7323 21.5333 38.8723 21.0733 38.8723 20.5C38.8723 19.9267 38.7357 19.4667 38.4623 19.12C38.1957 18.7733 37.819 18.6 37.3323 18.6C37.0123 18.6 36.7323 18.68 36.4923 18.84C36.2523 18.9933 36.0657 19.2133 35.9323 19.5C35.799 19.78 35.7323 20.1133 35.7323 20.5C35.7323 20.88 35.7957 21.2133 35.9223 21.5C36.0557 21.7867 36.239 22.01 36.4723 22.17C36.7123 22.3233 36.989 22.4 37.3023 22.4ZM43.0719 17.9C43.5452 17.9 43.9619 18.0033 44.3219 18.21C44.6885 18.4167 44.9752 18.7167 45.1819 19.11C45.3885 19.4967 45.4919 19.96 45.4919 20.5C45.4919 21.04 45.3885 21.5067 45.1819 21.9C44.9752 22.2867 44.6885 22.5833 44.3219 22.79C43.9619 22.9967 43.5452 23.1 43.0719 23.1C42.6052 23.1 42.1885 22.9967 41.8219 22.79C41.4552 22.5833 41.1685 22.2867 40.9619 21.9C40.7552 21.5067 40.6519 21.04 40.6519 20.5C40.6519 19.96 40.7552 19.4967 40.9619 19.11C41.1685 18.7167 41.4552 18.4167 41.8219 18.21C42.1885 18.0033 42.6052 17.9 43.0719 17.9ZM43.0719 18.59C42.7319 18.59 42.4419 18.6667 42.2019 18.82C41.9619 18.9733 41.7752 19.1933 41.6419 19.48C41.5152 19.76 41.4519 20.1 41.4519 20.5C41.4519 20.8933 41.5152 21.2333 41.6419 21.52C41.7752 21.8067 41.9619 22.0267 42.2019 22.18C42.4419 22.3333 42.7319 22.41 43.0719 22.41C43.4119 22.41 43.7019 22.3333 43.9419 22.18C44.1819 22.0267 44.3652 21.8067 44.4919 21.52C44.6252 21.2333 44.6919 20.8933 44.6919 20.5C44.6919 20.1 44.6252 19.76 44.4919 19.48C44.3652 19.1933 44.1819 18.9733 43.9419 18.82C43.7019 18.6667 43.4119 18.59 43.0719 18.59ZM46.798 23V18H47.448L47.558 18.82C47.698 18.5133 47.9013 18.2833 48.168 18.13C48.4413 17.9767 48.7713 17.9 49.158 17.9C49.2446 17.9 49.338 17.9067 49.438 17.92C49.5446 17.9333 49.6346 17.96 49.708 18L49.568 18.73C49.4946 18.7033 49.4146 18.6833 49.328 18.67C49.2413 18.6567 49.118 18.65 48.958 18.65C48.7513 18.65 48.5413 18.71 48.328 18.83C48.1213 18.95 47.948 19.1333 47.808 19.38C47.668 19.62 47.598 19.9267 47.598 20.3V23H46.798ZM51.5573 16.58V21.62C51.5573 21.8667 51.6273 22.05 51.7673 22.17C51.9073 22.29 52.0873 22.35 52.3073 22.35C52.5006 22.35 52.6673 22.3167 52.8073 22.25C52.9473 22.1833 53.0739 22.0933 53.1873 21.98L53.4673 22.65C53.3139 22.79 53.1306 22.9 52.9173 22.98C52.7106 23.06 52.4706 23.1 52.1973 23.1C51.9439 23.1 51.7073 23.0567 51.4873 22.97C51.2673 22.8767 51.0906 22.7333 50.9573 22.54C50.8306 22.34 50.7639 22.08 50.7573 21.76V16.8L51.5573 16.58ZM53.3773 18V18.69H49.7573V18H53.3773ZM56.4567 23.1C55.9834 23.1 55.5601 22.9967 55.1867 22.79C54.8201 22.5833 54.5334 22.2867 54.3267 21.9C54.1201 21.5067 54.0167 21.04 54.0167 20.5C54.0167 19.96 54.1201 19.4967 54.3267 19.11C54.5334 18.7167 54.8167 18.4167 55.1767 18.21C55.5367 18.0033 55.9467 17.9 56.4067 17.9C56.8734 17.9 57.2701 18 57.5967 18.2C57.9301 18.4 58.1834 18.6733 58.3567 19.02C58.5301 19.36 58.6167 19.7433 58.6167 20.17C58.6167 20.2833 58.6134 20.3867 58.6067 20.48C58.6001 20.5733 58.5901 20.6567 58.5767 20.73H54.5367V20.02H58.2267L57.8167 20.1C57.8167 19.62 57.6834 19.25 57.4167 18.99C57.1567 18.73 56.8134 18.6 56.3867 18.6C56.0601 18.6 55.7767 18.6767 55.5367 18.83C55.3034 18.9767 55.1201 19.1933 54.9867 19.48C54.8601 19.76 54.7967 20.1 54.7967 20.5C54.7967 20.8933 54.8634 21.2333 54.9967 21.52C55.1301 21.8067 55.3167 22.0267 55.5567 22.18C55.8034 22.3267 56.0967 22.4 56.4367 22.4C56.8034 22.4 57.1001 22.33 57.3267 22.19C57.5601 22.05 57.7467 21.86 57.8867 21.62L58.5167 21.99C58.3901 22.2167 58.2267 22.4133 58.0267 22.58C57.8334 22.7467 57.6034 22.8767 57.3367 22.97C57.0767 23.0567 56.7834 23.1 56.4567 23.1ZM63.1464 23V15.7H63.9464V18.75C64.1197 18.45 64.3497 18.2333 64.6364 18.1C64.9231 17.9667 65.2364 17.9 65.5764 17.9C65.9364 17.9 66.2631 17.97 66.5564 18.11C66.8497 18.2433 67.0831 18.45 67.2564 18.73C67.4364 19.01 67.5264 19.3667 67.5264 19.8V23H66.7264V20.08C66.7264 19.5267 66.6064 19.1433 66.3664 18.93C66.1331 18.71 65.8431 18.6 65.4964 18.6C65.2564 18.6 65.0164 18.6567 64.7764 18.77C64.5364 18.8833 64.3364 19.07 64.1764 19.33C64.0231 19.5833 63.9464 19.9233 63.9464 20.35V23H63.1464ZM70.9478 23.1C70.6278 23.1 70.3245 23.04 70.0378 22.92C69.7578 22.8 69.5278 22.6067 69.3478 22.34C69.1745 22.0667 69.0878 21.7133 69.0878 21.28V18H69.8878V21.07C69.8878 21.5767 69.9978 21.9267 70.2178 22.12C70.4378 22.3067 70.7478 22.4 71.1478 22.4C71.3345 22.4 71.5178 22.37 71.6978 22.31C71.8778 22.2433 72.0378 22.1433 72.1778 22.01C72.3245 21.87 72.4378 21.6933 72.5178 21.48C72.6045 21.2667 72.6478 21.0133 72.6478 20.72V18H73.4478V23H72.7478L72.6978 22.24C72.5245 22.54 72.2878 22.76 71.9878 22.9C71.6945 23.0333 71.3478 23.1 70.9478 23.1ZM75.1097 23V18H75.8097L75.8597 18.78C76.0397 18.4733 76.273 18.25 76.5597 18.11C76.853 17.97 77.153 17.9 77.4597 17.9C77.813 17.9 78.1464 17.98 78.4597 18.14C78.773 18.3 79.013 18.5467 79.1797 18.88C79.2864 18.6533 79.4364 18.47 79.6297 18.33C79.823 18.1833 80.033 18.0767 80.2597 18.01C80.493 17.9367 80.713 17.9 80.9197 17.9C81.2397 17.9 81.543 17.9667 81.8297 18.1C82.123 18.2333 82.363 18.44 82.5497 18.72C82.7364 19 82.8297 19.36 82.8297 19.8V23H82.0297V19.88C82.0297 19.4267 81.9164 19.1 81.6897 18.9C81.463 18.7 81.183 18.6 80.8497 18.6C80.5897 18.6 80.3464 18.6633 80.1197 18.79C79.893 18.9167 79.7097 19.1033 79.5697 19.35C79.4364 19.5967 79.3697 19.9 79.3697 20.26V23H78.5697V19.88C78.5697 19.4267 78.4564 19.1 78.2297 18.9C78.003 18.7 77.723 18.6 77.3897 18.6C77.1697 18.6 76.943 18.66 76.7097 18.78C76.483 18.8933 76.293 19.0767 76.1397 19.33C75.9864 19.5833 75.9097 19.9167 75.9097 20.33V23H75.1097ZM87.3609 19.77C87.3609 19.3967 87.2609 19.11 87.0609 18.91C86.8609 18.7033 86.5776 18.6 86.2109 18.6C85.8643 18.6 85.5709 18.6767 85.3309 18.83C85.0909 18.9767 84.9143 19.2167 84.8009 19.55L84.1509 19.15C84.2843 18.7767 84.5309 18.4767 84.8909 18.25C85.2509 18.0167 85.6976 17.9 86.2309 17.9C86.5909 17.9 86.9176 17.9633 87.2109 18.09C87.5043 18.21 87.7343 18.3967 87.9009 18.65C88.0743 18.8967 88.1609 19.2167 88.1609 19.61V22.03C88.1609 22.27 88.2876 22.39 88.5409 22.39C88.6676 22.39 88.7909 22.3733 88.9109 22.34L88.8709 22.97C88.7376 23.0367 88.5643 23.07 88.3509 23.07C88.1576 23.07 87.9843 23.0333 87.8309 22.96C87.6776 22.8867 87.5576 22.7767 87.4709 22.63C87.3843 22.4767 87.3409 22.2867 87.3409 22.06V21.96L87.5409 21.99C87.4609 22.25 87.3243 22.4633 87.1309 22.63C86.9376 22.79 86.7209 22.91 86.4809 22.99C86.2409 23.0633 86.0043 23.1 85.7709 23.1C85.4776 23.1 85.2043 23.05 84.9509 22.95C84.6976 22.85 84.4943 22.7 84.3409 22.5C84.1943 22.2933 84.1209 22.04 84.1209 21.74C84.1209 21.3667 84.2443 21.06 84.4909 20.82C84.7443 20.5733 85.0943 20.4067 85.5409 20.32L87.5209 19.93V20.59L85.9109 20.92C85.5843 20.9867 85.3409 21.08 85.1809 21.2C85.0209 21.32 84.9409 21.4867 84.9409 21.7C84.9409 21.9067 85.0209 22.0767 85.1809 22.21C85.3476 22.3367 85.5809 22.4 85.8809 22.4C86.0743 22.4 86.2576 22.3767 86.4309 22.33C86.6109 22.2767 86.7709 22.2 86.9109 22.1C87.0509 21.9933 87.1609 21.8633 87.2409 21.71C87.3209 21.55 87.3609 21.3633 87.3609 21.15V19.77ZM89.905 23V18H90.605L90.675 19.12L90.545 19.01C90.6517 18.7433 90.795 18.53 90.975 18.37C91.155 18.2033 91.3617 18.0833 91.595 18.01C91.835 17.9367 92.0817 17.9 92.335 17.9C92.695 17.9 93.0217 17.97 93.315 18.11C93.6083 18.2433 93.8417 18.45 94.015 18.73C94.195 19.01 94.285 19.3667 94.285 19.8V23H93.485V20.08C93.485 19.5267 93.365 19.1433 93.125 18.93C92.8917 18.71 92.6017 18.6 92.255 18.6C92.015 18.6 91.775 18.6567 91.535 18.77C91.295 18.8833 91.095 19.0667 90.935 19.32C90.7817 19.5733 90.705 19.9133 90.705 20.34V23H89.905ZM97.9664 17.9C98.4397 17.9 98.8564 18.0033 99.2164 18.21C99.5831 18.4167 99.8697 18.7167 100.076 19.11C100.283 19.4967 100.386 19.96 100.386 20.5C100.386 21.04 100.283 21.5067 100.076 21.9C99.8697 22.2867 99.5831 22.5833 99.2164 22.79C98.8564 22.9967 98.4397 23.1 97.9664 23.1C97.4997 23.1 97.0831 22.9967 96.7164 22.79C96.3497 22.5833 96.0631 22.2867 95.8564 21.9C95.6497 21.5067 95.5464 21.04 95.5464 20.5C95.5464 19.96 95.6497 19.4967 95.8564 19.11C96.0631 18.7167 96.3497 18.4167 96.7164 18.21C97.0831 18.0033 97.4997 17.9 97.9664 17.9ZM97.9664 18.59C97.6264 18.59 97.3364 18.6667 97.0964 18.82C96.8564 18.9733 96.6697 19.1933 96.5364 19.48C96.4097 19.76 96.3464 20.1 96.3464 20.5C96.3464 20.8933 96.4097 21.2333 96.5364 21.52C96.6697 21.8067 96.8564 22.0267 97.0964 22.18C97.3364 22.3333 97.6264 22.41 97.9664 22.41C98.3064 22.41 98.5964 22.3333 98.8364 22.18C99.0764 22.0267 99.2597 21.8067 99.3864 21.52C99.5197 21.2333 99.5864 20.8933 99.5864 20.5C99.5864 20.1 99.5197 19.76 99.3864 19.48C99.2597 19.1933 99.0764 18.9733 98.8364 18.82C98.5964 18.6667 98.3064 18.59 97.9664 18.59ZM104.711 23V22.35C105.371 21.8633 105.921 21.4367 106.361 21.07C106.807 20.7033 107.164 20.37 107.431 20.07C107.697 19.77 107.887 19.4867 108.001 19.22C108.114 18.9467 108.171 18.6633 108.171 18.37C108.171 17.9767 108.044 17.66 107.791 17.42C107.544 17.1733 107.204 17.05 106.771 17.05C106.317 17.05 105.954 17.2 105.681 17.5C105.407 17.7933 105.247 18.1867 105.201 18.68L104.501 18.26C104.561 17.8733 104.684 17.5333 104.871 17.24C105.064 16.9467 105.321 16.7167 105.641 16.55C105.967 16.3833 106.354 16.3 106.801 16.3C107.141 16.3 107.444 16.35 107.711 16.45C107.984 16.55 108.217 16.6933 108.411 16.88C108.604 17.06 108.751 17.2767 108.851 17.53C108.957 17.7833 109.011 18.0633 109.011 18.37C109.011 18.7833 108.911 19.19 108.711 19.59C108.511 19.9833 108.181 20.3967 107.721 20.83C107.261 21.2633 106.637 21.7433 105.851 22.27V22.28C105.924 22.2733 106.024 22.27 106.151 22.27C106.284 22.2633 106.414 22.26 106.541 22.26C106.674 22.2533 106.774 22.25 106.841 22.25H109.151V23H104.711ZM112.958 23V21.27H109.738V20.68L112.748 16.4H113.758V20.58H114.928V21.27H113.758V23H112.958ZM110.588 20.58H112.958V18.11C112.958 17.9367 112.961 17.76 112.968 17.58C112.981 17.4 112.991 17.2233 112.998 17.05H112.978C112.898 17.2167 112.795 17.4033 112.668 17.61C112.541 17.8167 112.425 17.9967 112.318 18.15L110.588 20.58ZM119.301 15.7L116.241 23.7H115.491L118.551 15.7H119.301ZM119.777 16.4H124.637V17.15C124.083 17.7367 123.63 18.34 123.277 18.96C122.93 19.5733 122.677 20.2133 122.517 20.88C122.357 21.5467 122.277 22.2533 122.277 23H121.457C121.457 22.26 121.547 21.5367 121.727 20.83C121.913 20.1167 122.193 19.4333 122.567 18.78C122.94 18.1267 123.403 17.5167 123.957 16.95L124.087 17.15H119.777V16.4Z" fill="#F4F4F4"/>
</svg>
