<svg width="158" height="27" viewBox="0 0 158 27" fill="none" xmlns="http://www.w3.org/2000/svg">
<path d="M1.2197 13.7643H2.55303V17.0976H13.2197V13.7643H14.553V17.0976C14.553 17.8376 13.9597 18.4309 13.2197 18.4309H2.55303C1.8197 18.4309 1.2197 17.8376 1.2197 17.0976V13.7643ZM7.88636 15.7643L11.5864 12.1243L10.6397 11.1843L8.55303 13.2643V7.0976H7.2197V13.2643L5.1397 11.1843L4.19303 12.1309L7.88636 15.7643Z" fill="#F4F4F4"/>
<path d="M25.21 3.4C26.2433 3.4 27.0533 3.68667 27.64 4.26C28.2333 4.82667 28.53 5.64 28.53 6.7C28.53 7.76 28.2333 8.57667 27.64 9.15C27.0533 9.71667 26.2433 10 25.21 10H23.08V3.4H25.21ZM25.29 9.25C26.0433 9.25 26.63 9.02667 27.05 8.58C27.4767 8.12667 27.69 7.5 27.69 6.7C27.69 5.9 27.4767 5.27667 27.05 4.83C26.63 4.37667 26.0433 4.15 25.29 4.15H23.88V9.25H25.29ZM30.087 10V3.4H34.717V4.15H30.887V6.28H33.867V7.03H30.887V9.25H34.867V10H30.087ZM38.384 3.3C38.964 3.3 39.464 3.42 39.884 3.66C40.304 3.89333 40.654 4.24 40.934 4.7L40.264 5.22C40.0173 4.79333 39.7373 4.49333 39.424 4.32C39.1173 4.14 38.744 4.05 38.304 4.05C37.9507 4.05 37.6573 4.1 37.424 4.2C37.1973 4.3 37.0307 4.43333 36.924 4.6C36.8173 4.76 36.764 4.94333 36.764 5.15C36.764 5.38333 36.8373 5.59 36.984 5.77C37.1307 5.94333 37.424 6.08 37.864 6.18L39.294 6.5C39.9273 6.64 40.3673 6.85333 40.614 7.14C40.8673 7.42 40.994 7.77 40.994 8.19C40.994 8.56333 40.8873 8.89667 40.674 9.19C40.4673 9.47667 40.174 9.7 39.794 9.86C39.414 10.02 38.9673 10.1 38.454 10.1C37.974 10.1 37.5507 10.0367 37.184 9.91C36.824 9.77667 36.514 9.6 36.254 9.38C35.994 9.16 35.7807 8.91333 35.614 8.64L36.314 8.07C36.4407 8.32333 36.604 8.54667 36.804 8.74C37.004 8.93333 37.244 9.08333 37.524 9.19C37.8107 9.29667 38.1373 9.35 38.504 9.35C38.844 9.35 39.1373 9.31 39.384 9.23C39.6373 9.14333 39.8307 9.02 39.964 8.86C40.0973 8.69333 40.164 8.49333 40.164 8.26C40.164 8.04667 40.094 7.85667 39.954 7.69C39.814 7.51667 39.5507 7.38667 39.164 7.3L37.614 6.95C37.2073 6.85667 36.8773 6.73 36.624 6.57C36.3773 6.40333 36.1973 6.21 36.084 5.99C35.9773 5.76333 35.924 5.52 35.924 5.26C35.924 4.90667 36.0207 4.58333 36.214 4.29C36.414 3.99 36.6973 3.75 37.064 3.57C37.4373 3.39 37.8773 3.3 38.384 3.3ZM47.7902 8.31C47.6502 8.68333 47.4502 9.00667 47.1902 9.28C46.9302 9.54667 46.6236 9.75 46.2702 9.89C45.9236 10.03 45.5436 10.1 45.1302 10.1C44.5036 10.1 43.9602 9.96333 43.5002 9.69C43.0469 9.41 42.6936 9.01667 42.4402 8.51C42.1936 8.00333 42.0702 7.4 42.0702 6.7C42.0702 6 42.1936 5.39667 42.4402 4.89C42.6936 4.38333 43.0469 3.99333 43.5002 3.72C43.9602 3.44 44.4969 3.3 45.1102 3.3C45.5369 3.3 45.9169 3.36 46.2502 3.48C46.5836 3.59333 46.8669 3.76667 47.1002 4C47.3402 4.22667 47.5302 4.50667 47.6702 4.84L46.8802 5.21C46.7336 4.83 46.5202 4.54333 46.2402 4.35C45.9669 4.15 45.6102 4.05 45.1702 4.05C44.7236 4.05 44.3302 4.15667 43.9902 4.37C43.6502 4.57667 43.3836 4.87667 43.1902 5.27C43.0036 5.66333 42.9102 6.14 42.9102 6.7C42.9102 7.25333 43.0002 7.73 43.1802 8.13C43.3602 8.52333 43.6169 8.82667 43.9502 9.04C44.2836 9.24667 44.6769 9.35 45.1302 9.35C45.5702 9.35 45.9536 9.24 46.2802 9.02C46.6069 8.79333 46.8436 8.45667 46.9902 8.01L47.7902 8.31ZM54.3857 10H53.5357L52.8357 8.17H49.8457L49.1457 10H48.3057L50.8757 3.4H51.8257L54.3857 10ZM50.1357 7.42H52.5457L51.3357 4.17L50.1357 7.42ZM58.0273 3.4C58.7006 3.4 59.2406 3.57333 59.6473 3.92C60.0539 4.26667 60.2573 4.73667 60.2573 5.33C60.2573 5.92333 60.0506 6.38667 59.6373 6.72C59.2306 7.04667 58.6906 7.21 58.0173 7.21L57.9473 7.26H56.3273V10H55.5273V3.4H58.0273ZM58.0173 6.51C58.4906 6.51 58.8406 6.41333 59.0673 6.22C59.3006 6.02 59.4173 5.72333 59.4173 5.33C59.4173 4.93667 59.3006 4.64333 59.0673 4.45C58.8406 4.25 58.4906 4.15 58.0173 4.15H56.3273V6.51H58.0173ZM58.4773 6.67L60.6573 10H59.7073L57.8073 7.11L58.4773 6.67ZM64.5791 10.1C63.9524 10.1 63.4091 9.96333 62.9491 9.69C62.4957 9.41 62.1424 9.01667 61.8891 8.51C61.6424 8.00333 61.5191 7.4 61.5191 6.7C61.5191 6 61.6491 5.39667 61.9091 4.89C62.1757 4.38333 62.5457 3.99333 63.0191 3.72C63.4924 3.44 64.0357 3.3 64.6491 3.3C65.3024 3.3 65.8324 3.42333 66.2391 3.67C66.6524 3.91667 66.9857 4.29667 67.2391 4.81L66.5091 5.21C66.3624 4.83 66.1291 4.54333 65.8091 4.35C65.4957 4.15 65.1091 4.05 64.6491 4.05C64.2024 4.05 63.8057 4.15667 63.4591 4.37C63.1191 4.57667 62.8491 4.88 62.6491 5.28C62.4557 5.67333 62.3591 6.14667 62.3591 6.7C62.3591 7.25333 62.4424 7.73 62.6091 8.13C62.7824 8.52333 63.0357 8.82667 63.3691 9.04C63.7091 9.24667 64.1224 9.35 64.6091 9.35C64.8824 9.35 65.1357 9.31667 65.3691 9.25C65.6091 9.17667 65.8157 9.07 65.9891 8.93C66.1691 8.79 66.3091 8.61333 66.4091 8.4C66.5091 8.18667 66.5591 7.93667 66.5591 7.65V7.42H64.4591V6.67H67.2891V10H66.6591L66.6191 8.77L66.7891 8.8C66.6157 9.21333 66.3424 9.53333 65.9691 9.76C65.5957 9.98667 65.1324 10.1 64.5791 10.1ZM74.2154 10H73.3654L72.6654 8.17H69.6754L68.9754 10H68.1354L70.7054 3.4H71.6554L74.2154 10ZM69.9654 7.42H72.3754L71.1654 4.17L69.9654 7.42ZM80.6648 3.4C81.3381 3.4 81.8781 3.57333 82.2848 3.92C82.6914 4.26667 82.8948 4.73667 82.8948 5.33C82.8948 5.92333 82.6881 6.38667 82.2748 6.72C81.8681 7.04667 81.3281 7.21 80.6548 7.21L80.5848 7.26H78.9648V10H78.1648V3.4H80.6648ZM80.6548 6.51C81.1281 6.51 81.4781 6.41333 81.7048 6.22C81.9381 6.02 82.0548 5.72333 82.0548 5.33C82.0548 4.93667 81.9381 4.64333 81.7048 4.45C81.4781 4.25 81.1281 4.15 80.6548 4.15H78.9648V6.51H80.6548ZM81.1148 6.67L83.2948 10H82.3448L80.4448 7.11L81.1148 6.67ZM89.8752 10H89.0252L88.3252 8.17H85.3352L84.6352 10H83.7952L86.3652 3.4H87.3152L89.8752 10ZM85.6252 7.42H88.0352L86.8252 4.17L85.6252 7.42ZM87.0652 0.979999H87.9052L87.0452 2.57H86.4052L87.0652 0.979999ZM93.3467 3.4C93.7934 3.4 94.1801 3.48333 94.5067 3.65C94.8401 3.81 95.1001 4.04 95.2867 4.34C95.4734 4.64 95.5667 4.99667 95.5667 5.41C95.5667 5.82333 95.4734 6.18 95.2867 6.48C95.1001 6.78 94.8401 7.01333 94.5067 7.18C94.1801 7.34 93.7934 7.42 93.3467 7.42H91.8167V10H91.0167V3.4H93.3467ZM93.2267 6.67C93.7467 6.67 94.1267 6.56333 94.3667 6.35C94.6067 6.13 94.7267 5.81667 94.7267 5.41C94.7267 4.99667 94.6067 4.68333 94.3667 4.47C94.1267 4.25667 93.7467 4.15 93.2267 4.15H91.8167V6.67H93.2267ZM97.7202 3.4V10H96.9202V3.4H97.7202ZM101.809 3.4C102.843 3.4 103.653 3.68667 104.239 4.26C104.833 4.82667 105.129 5.64 105.129 6.7C105.129 7.76 104.833 8.57667 104.239 9.15C103.653 9.71667 102.843 10 101.809 10H99.6792V3.4H101.809ZM101.889 9.25C102.643 9.25 103.229 9.02667 103.649 8.58C104.076 8.12667 104.289 7.5 104.289 6.7C104.289 5.9 104.076 5.27667 103.649 4.83C103.229 4.37667 102.643 4.15 101.889 4.15H100.479V9.25H101.889ZM111.722 10H110.872L110.172 8.17H107.182L106.482 10H105.642L108.212 3.4H109.162L111.722 10ZM107.472 7.42H109.882L108.672 4.17L107.472 7.42Z" fill="#F4F4F4"/>
<path d="M23.88 17.4V24H23.08V17.4H23.88ZM25.6402 24V19H26.3402L26.4102 20.12L26.2802 20.01C26.3868 19.7433 26.5302 19.53 26.7102 19.37C26.8902 19.2033 27.0968 19.0833 27.3302 19.01C27.5702 18.9367 27.8168 18.9 28.0702 18.9C28.4302 18.9 28.7568 18.97 29.0502 19.11C29.3435 19.2433 29.5768 19.45 29.7502 19.73C29.9302 20.01 30.0202 20.3667 30.0202 20.8V24H29.2202V21.08C29.2202 20.5267 29.1002 20.1433 28.8602 19.93C28.6268 19.71 28.3368 19.6 27.9902 19.6C27.7502 19.6 27.5102 19.6567 27.2702 19.77C27.0302 19.8833 26.8302 20.0667 26.6702 20.32C26.5168 20.5733 26.4402 20.9133 26.4402 21.34V24H25.6402ZM31.6316 24V19H32.3316L32.3816 19.78C32.5616 19.4733 32.7949 19.25 33.0816 19.11C33.3749 18.97 33.6749 18.9 33.9816 18.9C34.3349 18.9 34.6682 18.98 34.9816 19.14C35.2949 19.3 35.5349 19.5467 35.7016 19.88C35.8082 19.6533 35.9582 19.47 36.1516 19.33C36.3449 19.1833 36.5549 19.0767 36.7816 19.01C37.0149 18.9367 37.2349 18.9 37.4416 18.9C37.7616 18.9 38.0649 18.9667 38.3516 19.1C38.6449 19.2333 38.8849 19.44 39.0716 19.72C39.2582 20 39.3516 20.36 39.3516 20.8V24H38.5516V20.88C38.5516 20.4267 38.4382 20.1 38.2116 19.9C37.9849 19.7 37.7049 19.6 37.3716 19.6C37.1116 19.6 36.8682 19.6633 36.6416 19.79C36.4149 19.9167 36.2316 20.1033 36.0916 20.35C35.9582 20.5967 35.8916 20.9 35.8916 21.26V24H35.0916V20.88C35.0916 20.4267 34.9782 20.1 34.7516 19.9C34.5249 19.7 34.2449 19.6 33.9116 19.6C33.6916 19.6 33.4649 19.66 33.2316 19.78C33.0049 19.8933 32.8149 20.0767 32.6616 20.33C32.5082 20.5833 32.4316 20.9167 32.4316 21.33V24H31.6316ZM43.0528 24.1C42.5795 24.1 42.1561 23.9967 41.7828 23.79C41.4161 23.5833 41.1295 23.2867 40.9228 22.9C40.7161 22.5067 40.6128 22.04 40.6128 21.5C40.6128 20.96 40.7161 20.4967 40.9228 20.11C41.1295 19.7167 41.4128 19.4167 41.7728 19.21C42.1328 19.0033 42.5428 18.9 43.0028 18.9C43.4695 18.9 43.8661 19 44.1928 19.2C44.5261 19.4 44.7795 19.6733 44.9528 20.02C45.1261 20.36 45.2128 20.7433 45.2128 21.17C45.2128 21.2833 45.2095 21.3867 45.2028 21.48C45.1961 21.5733 45.1861 21.6567 45.1728 21.73H41.1328V21.02H44.8228L44.4128 21.1C44.4128 20.62 44.2795 20.25 44.0128 19.99C43.7528 19.73 43.4095 19.6 42.9828 19.6C42.6561 19.6 42.3728 19.6767 42.1328 19.83C41.8995 19.9767 41.7161 20.1933 41.5828 20.48C41.4561 20.76 41.3928 21.1 41.3928 21.5C41.3928 21.8933 41.4595 22.2333 41.5928 22.52C41.7261 22.8067 41.9128 23.0267 42.1528 23.18C42.3995 23.3267 42.6928 23.4 43.0328 23.4C43.3995 23.4 43.6961 23.33 43.9228 23.19C44.1561 23.05 44.3428 22.86 44.4828 22.62L45.1128 22.99C44.9861 23.2167 44.8228 23.4133 44.6228 23.58C44.4295 23.7467 44.1995 23.8767 43.9328 23.97C43.6728 24.0567 43.3795 24.1 43.0528 24.1ZM48.4843 24.1C48.071 24.1 47.691 23.9967 47.3443 23.79C46.9976 23.5833 46.721 23.2867 46.5143 22.9C46.3076 22.5067 46.2043 22.04 46.2043 21.5C46.2043 20.9467 46.3143 20.4767 46.5343 20.09C46.7543 19.7033 47.0443 19.41 47.4043 19.21C47.7643 19.0033 48.151 18.9 48.5643 18.9C48.9776 18.9 49.3343 19.0067 49.6343 19.22C49.941 19.4333 50.1443 19.7167 50.2443 20.07L50.1443 20.14V16.7H50.9443V24H50.2443L50.1743 22.79L50.2843 22.73C50.2376 23.0233 50.1243 23.2733 49.9443 23.48C49.771 23.68 49.5543 23.8333 49.2943 23.94C49.041 24.0467 48.771 24.1 48.4843 24.1ZM48.5643 23.4C48.8843 23.4 49.161 23.32 49.3943 23.16C49.6343 23 49.8176 22.7733 49.9443 22.48C50.0776 22.18 50.1443 21.83 50.1443 21.43C50.1443 21.05 50.0776 20.7233 49.9443 20.45C49.8176 20.1767 49.6376 19.9667 49.4043 19.82C49.1776 19.6733 48.911 19.6 48.6043 19.6C48.0976 19.6 47.7043 19.7733 47.4243 20.12C47.1443 20.4667 47.0043 20.9267 47.0043 21.5C47.0043 22.0733 47.141 22.5333 47.4143 22.88C47.6876 23.2267 48.071 23.4 48.5643 23.4ZM53.0038 18.04C52.8238 18.04 52.6772 17.9867 52.5638 17.88C52.4572 17.7667 52.4038 17.62 52.4038 17.44C52.4038 17.26 52.4572 17.1167 52.5638 17.01C52.6772 16.8967 52.8238 16.84 53.0038 16.84C53.1838 16.84 53.3272 16.8967 53.4338 17.01C53.5472 17.1167 53.6038 17.26 53.6038 17.44C53.6038 17.62 53.5472 17.7667 53.4338 17.88C53.3272 17.9867 53.1838 18.04 53.0038 18.04ZM53.4038 19V24H52.6038V19H53.4038ZM57.9801 20.77C57.9801 20.3967 57.8801 20.11 57.6801 19.91C57.4801 19.7033 57.1967 19.6 56.8301 19.6C56.4834 19.6 56.1901 19.6767 55.9501 19.83C55.7101 19.9767 55.5334 20.2167 55.4201 20.55L54.7701 20.15C54.9034 19.7767 55.1501 19.4767 55.5101 19.25C55.8701 19.0167 56.3167 18.9 56.8501 18.9C57.2101 18.9 57.5367 18.9633 57.8301 19.09C58.1234 19.21 58.3534 19.3967 58.5201 19.65C58.6934 19.8967 58.7801 20.2167 58.7801 20.61V23.03C58.7801 23.27 58.9067 23.39 59.1601 23.39C59.2867 23.39 59.4101 23.3733 59.5301 23.34L59.4901 23.97C59.3567 24.0367 59.1834 24.07 58.9701 24.07C58.7767 24.07 58.6034 24.0333 58.4501 23.96C58.2967 23.8867 58.1767 23.7767 58.0901 23.63C58.0034 23.4767 57.9601 23.2867 57.9601 23.06V22.96L58.1601 22.99C58.0801 23.25 57.9434 23.4633 57.7501 23.63C57.5567 23.79 57.3401 23.91 57.1001 23.99C56.8601 24.0633 56.6234 24.1 56.3901 24.1C56.0967 24.1 55.8234 24.05 55.5701 23.95C55.3167 23.85 55.1134 23.7 54.9601 23.5C54.8134 23.2933 54.7401 23.04 54.7401 22.74C54.7401 22.3667 54.8634 22.06 55.1101 21.82C55.3634 21.5733 55.7134 21.4067 56.1601 21.32L58.1401 20.93V21.59L56.5301 21.92C56.2034 21.9867 55.9601 22.08 55.8001 22.2C55.6401 22.32 55.5601 22.4867 55.5601 22.7C55.5601 22.9067 55.6401 23.0767 55.8001 23.21C55.9667 23.3367 56.2001 23.4 56.5001 23.4C56.6934 23.4 56.8767 23.3767 57.0501 23.33C57.2301 23.2767 57.3901 23.2 57.5301 23.1C57.6701 22.9933 57.7801 22.8633 57.8601 22.71C57.9401 22.55 57.9801 22.3633 57.9801 22.15V20.77ZM61.5088 17.58V22.62C61.5088 22.8667 61.5788 23.05 61.7188 23.17C61.8588 23.29 62.0388 23.35 62.2588 23.35C62.4522 23.35 62.6188 23.3167 62.7588 23.25C62.8988 23.1833 63.0255 23.0933 63.1388 22.98L63.4188 23.65C63.2655 23.79 63.0822 23.9 62.8688 23.98C62.6622 24.06 62.4222 24.1 62.1488 24.1C61.8955 24.1 61.6588 24.0567 61.4388 23.97C61.2188 23.8767 61.0422 23.7333 60.9088 23.54C60.7822 23.34 60.7155 23.08 60.7088 22.76V17.8L61.5088 17.58ZM63.3288 19V19.69H59.7088V19H63.3288ZM67.2383 20.77C67.2383 20.3967 67.1383 20.11 66.9383 19.91C66.7383 19.7033 66.4549 19.6 66.0883 19.6C65.7416 19.6 65.4483 19.6767 65.2083 19.83C64.9683 19.9767 64.7916 20.2167 64.6783 20.55L64.0283 20.15C64.1616 19.7767 64.4083 19.4767 64.7683 19.25C65.1283 19.0167 65.5749 18.9 66.1083 18.9C66.4683 18.9 66.7949 18.9633 67.0883 19.09C67.3816 19.21 67.6116 19.3967 67.7783 19.65C67.9516 19.8967 68.0383 20.2167 68.0383 20.61V23.03C68.0383 23.27 68.1649 23.39 68.4183 23.39C68.5449 23.39 68.6683 23.3733 68.7883 23.34L68.7483 23.97C68.6149 24.0367 68.4416 24.07 68.2283 24.07C68.0349 24.07 67.8616 24.0333 67.7083 23.96C67.5549 23.8867 67.4349 23.7767 67.3483 23.63C67.2616 23.4767 67.2183 23.2867 67.2183 23.06V22.96L67.4183 22.99C67.3383 23.25 67.2016 23.4633 67.0083 23.63C66.8149 23.79 66.5983 23.91 66.3583 23.99C66.1183 24.0633 65.8816 24.1 65.6483 24.1C65.3549 24.1 65.0816 24.05 64.8283 23.95C64.5749 23.85 64.3716 23.7 64.2183 23.5C64.0716 23.2933 63.9983 23.04 63.9983 22.74C63.9983 22.3667 64.1216 22.06 64.3683 21.82C64.6216 21.5733 64.9716 21.4067 65.4183 21.32L67.3983 20.93V21.59L65.7883 21.92C65.4616 21.9867 65.2183 22.08 65.0583 22.2C64.8983 22.32 64.8183 22.4867 64.8183 22.7C64.8183 22.9067 64.8983 23.0767 65.0583 23.21C65.2249 23.3367 65.4583 23.4 65.7583 23.4C65.9516 23.4 66.1349 23.3767 66.3083 23.33C66.4883 23.2767 66.6483 23.2 66.7883 23.1C66.9283 22.9933 67.0383 22.8633 67.1183 22.71C67.1983 22.55 67.2383 22.3633 67.2383 22.15V20.77Z" fill="#F4F4F4"/>
</svg>
