<svg width="16" height="16" viewBox="0 0 16 16" fill="none" xmlns="http://www.w3.org/2000/svg">
<path d="M14 7.33333C14 11.0333 11.44 14.4933 8 15.3333C4.56 14.4933 2 11.0333 2 7.33333V3.33333L8 0.666664L14 3.33333V7.33333ZM8 14C10.5 13.3333 12.6667 10.36 12.6667 7.48V4.2L8 2.12L3.33333 4.2V7.48C3.33333 10.36 5.5 13.3333 8 14ZM8 5.92666C9.06667 5.92666 9.92667 6.78666 9.92667 7.85333C9.92667 8.92 9.06667 9.78 8 9.78C6.93333 9.78 6.07333 8.91333 6.07333 7.85333C6.07333 6.79333 6.94 5.92666 8 5.92666ZM8 4L8.92 5.33333C8.64 5.21333 8.33333 5.15333 8 5.15333C7.66667 5.15333 7.36667 5.21333 7.08 5.33333L8 4ZM4.66667 5.92666L6.26667 5.79333C6.04 6 5.82667 6.22666 5.66667 6.50666C5.5 6.78666 5.4 7.08 5.33333 7.38666L4.66667 5.92666ZM4.66667 9.78L5.35333 8.33333C5.40667 8.62 5.51333 8.92 5.66667 9.2C5.83333 9.48666 6.04 9.72666 6.26667 9.92L4.66667 9.78ZM11.3333 5.92666L10.6667 7.38666C10.6 7.08 10.4933 6.78666 10.3333 6.50666C10.1733 6.22666 9.96667 6 9.73333 5.78666L11.3333 5.92666ZM11.3333 9.78L9.73333 9.91333C9.96 9.72 10.1667 9.48 10.3333 9.2C10.4933 8.92 10.5933 8.62 10.6467 8.33333L11.3333 9.78ZM8 11.7L7.07333 10.38C7.36 10.48 7.66667 10.5467 8 10.5467C8.33333 10.5467 8.63333 10.48 8.91333 10.38L8 11.7Z" fill="black"/>
</svg>
