<svg width="118" height="16" viewBox="0 0 118 16" fill="none" xmlns="http://www.w3.org/2000/svg">
<path d="M14.9733 3.99999C14.46 4.23332 13.9067 4.38666 13.3333 4.45999C13.92 4.10666 14.3733 3.54666 14.5867 2.87332C14.0333 3.20666 13.42 3.43999 12.7733 3.57332C12.2467 2.99999 11.5067 2.66666 10.6667 2.66666C9.10001 2.66666 7.82001 3.94666 7.82001 5.52666C7.82001 5.75332 7.84667 5.97332 7.89334 6.17999C5.52001 6.05999 3.40667 4.91999 2.00001 3.19332C1.75334 3.61332 1.61334 4.10666 1.61334 4.62666C1.61334 5.61999 2.11334 6.49999 2.88667 6.99999C2.41334 6.99999 1.97334 6.86666 1.58667 6.66666C1.58667 6.66666 1.58667 6.66666 1.58667 6.68666C1.58667 8.07332 2.57334 9.23332 3.88001 9.49332C3.64001 9.55999 3.38667 9.59332 3.12667 9.59332C2.94667 9.59332 2.76667 9.57332 2.59334 9.53999C2.95334 10.6667 4.00001 11.5067 5.26001 11.5267C4.28667 12.3 3.05334 12.7533 1.70667 12.7533C1.48001 12.7533 1.25334 12.74 1.02667 12.7133C2.29334 13.5267 3.80001 14 5.41334 14C10.6667 14 13.5533 9.63999 13.5533 5.85999C13.5533 5.73332 13.5533 5.61332 13.5467 5.48666C14.1067 5.08666 14.5867 4.57999 14.9733 3.99999Z" fill="#F4F4F4"/>
<path d="M109.76 3.95334H110.713V6.80668H109.76V3.95334ZM112.38 3.95334H113.333V6.80668H112.38V3.95334ZM106.667 1.33334L104.287 3.71334V12.2867H107.14V14.6667L109.527 12.2867H111.427L115.713 8.00001V1.33334H106.667ZM114.76 7.52668L112.86 9.42668H110.953L109.287 11.0933V9.42668H107.14V2.28668H114.76V7.52668Z" fill="#F4F4F4"/>
<path d="M73.2 1.33334H78.8C80.9333 1.33334 82.6667 3.06668 82.6667 5.20001V10.8C82.6667 11.8255 82.2593 12.809 81.5342 13.5342C80.809 14.2593 79.8255 14.6667 78.8 14.6667H73.2C71.0667 14.6667 69.3333 12.9333 69.3333 10.8V5.20001C69.3333 4.17451 69.7407 3.191 70.4659 2.46586C71.191 1.74072 72.1745 1.33334 73.2 1.33334V1.33334ZM73.0667 2.66668C72.4302 2.66668 71.8197 2.91953 71.3696 3.36962C70.9195 3.81971 70.6667 4.43016 70.6667 5.06668V10.9333C70.6667 12.26 71.74 13.3333 73.0667 13.3333H78.9333C79.5699 13.3333 80.1803 13.0805 80.6304 12.6304C81.0805 12.1803 81.3333 11.5699 81.3333 10.9333V5.06668C81.3333 3.74001 80.26 2.66668 78.9333 2.66668H73.0667ZM79.5 3.66668C79.721 3.66668 79.933 3.75447 80.0893 3.91075C80.2455 4.06703 80.3333 4.279 80.3333 4.50001C80.3333 4.72102 80.2455 4.93299 80.0893 5.08927C79.933 5.24555 79.721 5.33334 79.5 5.33334C79.279 5.33334 79.067 5.24555 78.9108 5.08927C78.7545 4.93299 78.6667 4.72102 78.6667 4.50001C78.6667 4.279 78.7545 4.06703 78.9108 3.91075C79.067 3.75447 79.279 3.66668 79.5 3.66668ZM76 4.66668C76.8841 4.66668 77.7319 5.01787 78.357 5.64299C78.9822 6.26811 79.3333 7.11596 79.3333 8.00001C79.3333 8.88407 78.9822 9.73191 78.357 10.357C77.7319 10.9822 76.8841 11.3333 76 11.3333C75.116 11.3333 74.2681 10.9822 73.643 10.357C73.0179 9.73191 72.6667 8.88407 72.6667 8.00001C72.6667 7.11596 73.0179 6.26811 73.643 5.64299C74.2681 5.01787 75.116 4.66668 76 4.66668V4.66668ZM76 6.00001C75.4696 6.00001 74.9609 6.21072 74.5858 6.5858C74.2107 6.96087 74 7.46958 74 8.00001C74 8.53044 74.2107 9.03915 74.5858 9.41422C74.9609 9.7893 75.4696 10 76 10C76.5304 10 77.0392 9.7893 77.4142 9.41422C77.7893 9.03915 78 8.53044 78 8.00001C78 7.46958 77.7893 6.96087 77.4142 6.5858C77.0392 6.21072 76.5304 6.00001 76 6.00001Z" fill="#F4F4F4"/>
<path d="M48.6667 3.99999C48.6667 3.26666 48.0667 2.66666 47.3333 2.66666H36.6667C35.9333 2.66666 35.3333 3.26666 35.3333 3.99999V12C35.3333 12.7333 35.9333 13.3333 36.6667 13.3333H47.3333C48.0667 13.3333 48.6667 12.7333 48.6667 12V3.99999ZM47.3333 3.99999L42 7.33332L36.6667 3.99999H47.3333ZM47.3333 12H36.6667V5.33332L42 8.66666L47.3333 5.33332V12Z" fill="#F4F4F4"/>
</svg>
