<svg width="16" height="16" viewBox="0 0 16 16" fill="none" xmlns="http://www.w3.org/2000/svg">
<path d="M12.48 9.84C12.7133 9.27334 12.84 8.66667 12.84 8C12.84 7.52 12.7666 7.06 12.64 6.63334C12.2066 6.73334 11.7533 6.78667 11.28 6.78667C9.23998 6.78667 7.43331 5.78 6.33331 4.22667C5.73998 5.66667 4.60665 6.84 3.17998 7.48C3.15331 7.64667 3.15331 7.82667 3.15331 8C3.15331 9.28542 3.66394 10.5182 4.57287 11.4271C5.4818 12.336 6.71456 12.8467 7.99998 12.8467C8.69998 12.8467 9.37331 12.6933 9.97998 12.42C10.36 13.1467 10.5333 13.5067 10.52 13.5067C9.42665 13.8733 8.57998 14.0533 7.99998 14.0533C6.38665 14.0533 4.84665 13.42 3.71331 12.28C3.01998 11.5867 2.50665 10.74 2.21998 9.82H1.33331V6.78667H2.05998C2.61998 4.02667 5.06665 1.94667 7.99998 1.94667C9.59998 1.94667 11.14 2.58 12.28 3.72C13.1266 4.56 13.6933 5.63334 13.9266 6.78667H14.6666V9.78V9.79334V9.82H14.6266L12.2533 12L8.71998 11.6V10.4867H11.94L12.48 9.84ZM6.17998 7.84667C6.37998 7.84667 6.57331 7.92667 6.71331 8.07334C6.85331 8.21334 6.93331 8.40667 6.93331 8.60667C6.93331 8.80667 6.85331 9 6.71331 9.14C6.57331 9.28 6.37998 9.36 6.17998 9.36C5.75998 9.36 5.41998 9.02667 5.41998 8.60667C5.41998 8.18667 5.75998 7.84667 6.17998 7.84667ZM9.81331 7.84667C10.2333 7.84667 10.5666 8.18667 10.5666 8.60667C10.5666 9.02667 10.2333 9.36 9.81331 9.36C9.39331 9.36 9.05331 9.02667 9.05331 8.60667C9.05331 8.40511 9.13339 8.2118 9.27591 8.06927C9.41844 7.92674 9.61175 7.84667 9.81331 7.84667Z" fill="black"/>
</svg>
